<svg width="227" height="256" viewBox="0 0 227 256" fill="none" xmlns="http://www.w3.org/2000/svg">
<path d="M166.768 157.322L206.683 45.4444C207.645 42.7526 206.389 39.7659 203.786 38.5867L131.402 5.60548C128.557 4.31084 121.468 6.19512 120.417 9.13048L84.0646 121.02C83.052 123.853 84.3851 126.994 87.1154 128.237L156.654 162.756C159.884 164.243 165.575 160.654 166.768 157.322Z" fill="url(#paint0_linear_0_2819)"/>
<path d="M166.558 157.373L206.461 45.4957C207.422 42.8038 206.166 39.8172 203.564 38.6379L131.18 5.65675C128.334 4.36211 121.245 6.24639 120.194 9.18175L83.842 121.072C82.8294 123.904 84.1624 127.045 86.8927 128.288L156.431 162.808C159.662 164.282 165.366 160.705 166.558 157.373Z" fill="url(#paint1_linear_0_2819)"/>
<path d="M162.361 158.796L202.277 46.9186C203.238 44.2268 201.982 41.2401 199.38 40.0609L126.983 7.09251C124.137 5.79787 120.792 7.20787 119.74 10.1561L79.658 122.507C78.6454 125.34 79.9785 128.481 82.7088 129.724L154.157 162.269C157.375 163.743 161.169 162.141 162.361 158.796Z" fill="url(#paint2_linear_0_2819)"/>
<path d="M156.641 158.975C156.334 158.975 156.026 158.911 155.731 158.77L84.2827 126.225C83.3598 125.802 82.9111 124.763 83.2572 123.802L123.34 11.4505C123.583 10.7583 124.224 10.4507 124.75 10.4507C124.955 10.4507 125.173 10.502 125.365 10.5917L197.749 43.5729C198.544 43.9318 198.916 44.8162 198.621 45.6366L158.705 157.514C158.372 158.526 157.423 158.975 156.641 158.975Z" fill="url(#paint3_linear_0_2819)"/>
<path d="M199.369 40.0734L126.985 7.09219C125.203 6.28464 123.229 6.52819 121.743 7.55364C123.178 6.7461 124.96 6.59228 126.588 7.33573L198.972 40.3169C201.574 41.4962 202.83 44.4828 201.869 47.1746L161.953 159.052C161.505 160.308 160.697 161.308 159.684 162C160.876 161.308 161.851 160.218 162.351 158.808L202.266 46.9311C203.228 44.2393 201.972 41.2526 199.369 40.0734Z" fill="url(#paint4_linear_0_2819)"/>
<path d="M172.328 20.6797L170.431 19.9106C170.443 19.7183 170.456 19.5133 170.456 19.321C170.456 15.5396 167.393 12.4761 163.611 12.4761C161.458 12.4761 159.548 13.4631 158.292 15.0141L156.343 14.2322C153.985 13.2836 151.293 14.4501 150.383 16.8343L147.512 24.3714L171.7 35.3822L175.007 26.8453C175.955 24.4098 174.763 21.6667 172.328 20.6797ZM163.611 22.6153C161.791 22.6153 160.317 21.1412 160.317 19.321C160.317 17.5008 161.791 16.0267 163.611 16.0267C165.432 16.0267 166.906 17.5008 166.906 19.321C166.906 21.1412 165.432 22.6153 163.611 22.6153Z" fill="url(#paint5_linear_0_2819)"/>
<path d="M126.254 45.906C125.677 47.5082 123.934 48.1748 122.37 47.3929C120.806 46.611 120.011 44.6754 120.601 43.0731C121.178 41.4709 122.921 40.8043 124.485 41.5862C126.049 42.3682 126.843 44.3037 126.254 45.906Z" fill="#E2E2E2"/>
<path opacity="0.7" d="M179.9 65.3254L132.985 44.8804C132.78 44.7778 132.678 44.5215 132.755 44.3036L132.844 44.0472C132.921 43.8293 133.152 43.7524 133.357 43.8549L180.285 64.2743C180.502 64.3768 180.605 64.646 180.528 64.8639L180.438 65.1203C180.349 65.351 180.105 65.4407 179.9 65.3254ZM178.823 68.2992L131.947 47.7645C131.742 47.6619 131.64 47.4056 131.716 47.1876L131.806 46.9313C131.883 46.7134 132.114 46.6365 132.319 46.739L179.208 67.2481C179.426 67.3507 179.528 67.6198 179.451 67.8377L179.362 68.0941C179.272 68.312 179.028 68.4017 178.823 68.2992ZM177.747 71.2602L130.909 50.6229C130.704 50.5204 130.601 50.264 130.678 50.0461L130.768 49.7897C130.845 49.5718 131.076 49.4949 131.281 49.5975L178.131 70.1963C178.349 70.2988 178.452 70.568 178.375 70.7859L178.285 71.0423C178.195 71.273 177.952 71.3627 177.747 71.2602ZM168.03 69.8887L129.832 53.4557C129.64 53.366 129.55 53.1225 129.614 52.943L129.73 52.6097C129.794 52.4175 130.012 52.3406 130.191 52.4303L168.402 68.8247C168.594 68.9273 168.697 69.158 168.62 69.3631L168.492 69.7092C168.441 69.9015 168.223 69.9912 168.03 69.8887ZM175.555 53.7249L137.344 37.3176C137.151 37.2279 137.062 36.9844 137.126 36.8049L137.241 36.4716C137.305 36.2794 137.523 36.2025 137.703 36.2922L175.926 52.661C176.119 52.7636 176.221 52.9943 176.144 53.1994L176.016 53.5455C175.965 53.7377 175.747 53.8146 175.555 53.7249Z" fill="#C9C5C5"/>
<path d="M120.582 61.5056C120.005 63.1079 118.262 63.7744 116.698 62.9925C115.134 62.2106 114.34 60.275 114.929 58.6728C115.506 57.0705 117.249 56.4039 118.813 57.1859C120.364 57.9806 121.159 59.9033 120.582 61.5056Z" fill="#E2E2E2"/>
<path opacity="0.7" d="M174.024 81.4766L127.315 60.4932C127.11 60.3906 127.007 60.1343 127.084 59.9164L127.174 59.66C127.251 59.4421 127.481 59.3652 127.686 59.4677L174.409 80.4126C174.627 80.5152 174.729 80.7844 174.652 81.0023L174.562 81.2586C174.473 81.4894 174.229 81.5919 174.024 81.4766ZM172.947 84.4376L126.264 63.3516C126.059 63.2491 125.956 62.9927 126.033 62.7748L126.123 62.5185C126.2 62.3006 126.43 62.2236 126.635 62.3262L173.332 83.3736C173.55 83.4762 173.652 83.7454 173.575 83.9633L173.486 84.2196C173.396 84.4632 173.152 84.5529 172.947 84.4376ZM171.858 87.4114L125.212 66.2229C125.007 66.1204 124.905 65.864 124.982 65.6461L125.071 65.3897C125.148 65.1718 125.379 65.0949 125.584 65.1975L172.242 86.3475C172.46 86.45 172.563 86.7192 172.486 86.9371L172.396 87.1935C172.319 87.4242 172.076 87.5139 171.858 87.4114ZM162.154 86.0398L124.149 69.0686C123.956 68.9788 123.867 68.7353 123.931 68.5558L124.046 68.2226C124.11 68.0303 124.328 67.9534 124.507 68.0431L162.526 84.9759C162.719 85.0785 162.821 85.3092 162.744 85.5143L162.616 85.8604C162.565 86.0526 162.347 86.1424 162.154 86.0398Z" fill="#C9C5C5"/>
<path d="M114.91 77.1184C114.333 78.7206 112.59 79.3872 111.026 78.6053C109.462 77.8234 108.667 75.8878 109.257 74.2855C109.834 72.6833 111.577 72.0167 113.141 72.7986C114.705 73.5806 115.487 75.5161 114.91 77.1184Z" fill="#E2E2E2"/>
<path opacity="0.7" d="M168.149 97.6272L121.632 76.1055C121.427 76.003 121.325 75.7466 121.401 75.5287L121.491 75.2723C121.568 75.0544 121.799 74.9775 122.004 75.08L168.534 96.5761C168.752 96.6787 168.854 96.9479 168.777 97.1658L168.688 97.4221C168.598 97.64 168.354 97.7298 168.149 97.6272ZM167.06 100.588L120.581 78.964C120.376 78.8614 120.273 78.605 120.35 78.3871L120.44 78.1308C120.517 77.9129 120.748 77.836 120.953 77.9385L167.444 99.5243C167.662 99.6269 167.765 99.896 167.688 100.114L167.598 100.37C167.521 100.614 167.278 100.704 167.06 100.588ZM165.983 103.562L119.543 81.8352C119.338 81.7327 119.235 81.4763 119.312 81.2584L119.402 81.002C119.479 80.7841 119.709 80.7072 119.915 80.8098L166.368 102.498C166.586 102.601 166.688 102.87 166.611 103.088L166.521 103.344C166.445 103.575 166.201 103.665 165.983 103.562ZM156.267 102.191L118.453 84.6809C118.261 84.5911 118.171 84.3476 118.235 84.1681L118.351 83.8349C118.415 83.6426 118.633 83.5657 118.812 83.6554L156.639 101.139C156.831 101.242 156.933 101.473 156.857 101.678L156.728 102.024C156.677 102.203 156.459 102.293 156.267 102.191Z" fill="#C9C5C5"/>
<path d="M109.238 92.718C108.661 94.3203 106.918 94.9868 105.354 94.2049C103.79 93.423 102.996 91.4874 103.585 89.8852C104.162 88.2829 105.905 87.6163 107.469 88.3983C109.033 89.1802 109.828 91.1157 109.238 92.718Z" fill="#E2E2E2"/>
<path opacity="0.7" d="M162.271 113.778L115.959 91.7051C115.754 91.6026 115.651 91.3462 115.728 91.1283L115.818 90.8719C115.895 90.654 116.126 90.5771 116.331 90.6797L162.669 112.714C162.886 112.817 162.989 113.086 162.912 113.304L162.822 113.56C162.733 113.791 162.489 113.881 162.271 113.778ZM161.194 116.739L114.908 94.5636C114.703 94.461 114.6 94.2047 114.677 93.9867L114.767 93.7304C114.844 93.5125 115.075 93.4356 115.28 93.5381L161.579 115.675C161.797 115.778 161.899 116.047 161.823 116.265L161.733 116.521C161.656 116.752 161.412 116.854 161.194 116.739ZM160.118 119.7L113.87 97.4348C113.665 97.3323 113.562 97.0759 113.639 96.858L113.729 96.6017C113.806 96.3837 114.036 96.3068 114.241 96.4094L160.502 118.649C160.72 118.751 160.823 119.021 160.746 119.239L160.656 119.495C160.579 119.726 160.336 119.815 160.118 119.7ZM150.402 118.341L112.793 100.28C112.601 100.191 112.511 99.9472 112.575 99.7677L112.69 99.4345C112.755 99.2422 112.972 99.1653 113.152 99.255L150.773 117.277C150.966 117.38 151.068 117.611 150.991 117.816L150.863 118.162C150.812 118.354 150.594 118.431 150.402 118.341Z" fill="#C9C5C5"/>
<path d="M103.566 108.331C102.99 109.933 101.246 110.6 99.6824 109.818C98.1186 109.036 97.3239 107.1 97.9135 105.498C98.4903 103.896 100.234 103.229 101.797 104.011C103.348 104.793 104.143 106.728 103.566 108.331Z" fill="#E2E2E2"/>
<path opacity="0.7" d="M156.407 129.929L110.287 107.318C110.082 107.215 109.98 106.959 110.057 106.741L110.146 106.485C110.223 106.267 110.454 106.19 110.659 106.292L156.792 128.865C157.01 128.968 157.112 129.237 157.035 129.455L156.946 129.711C156.869 129.942 156.625 130.032 156.407 129.929ZM155.33 132.89L109.249 110.176C109.044 110.074 108.941 109.817 109.018 109.6L109.108 109.343C109.185 109.125 109.416 109.048 109.621 109.151L155.715 131.826C155.933 131.929 156.035 132.198 155.959 132.416L155.869 132.672C155.792 132.903 155.548 132.993 155.33 132.89ZM154.254 135.851L108.211 113.035C108.006 112.932 107.903 112.676 107.98 112.458L108.07 112.202C108.147 111.984 108.377 111.907 108.583 112.009L154.638 134.787C154.856 134.89 154.959 135.159 154.882 135.377L154.792 135.633C154.715 135.877 154.472 135.967 154.254 135.851ZM144.538 134.492L107.121 115.893C106.929 115.804 106.839 115.56 106.903 115.381L107.019 115.047C107.083 114.855 107.301 114.778 107.48 114.868L144.909 133.429C145.102 133.531 145.204 133.762 145.127 133.967L144.999 134.313C144.948 134.505 144.73 134.582 144.538 134.492Z" fill="#C9C5C5"/>
<path d="M121.016 40.8938L122.349 46.2134L128.976 45.2135L128.489 43.5087L123.361 44.4957L122.541 40.6631L121.016 40.8938Z" fill="url(#paint6_linear_0_2819)"/>
<path d="M115.308 55.8528L116.642 61.1723L123.269 60.1725L122.781 58.4677L117.654 59.4547L116.834 55.6221L115.308 55.8528Z" fill="url(#paint7_linear_0_2819)"/>
<path d="M109.602 70.8118L110.935 76.1313L117.562 75.1315L117.075 73.4267L111.947 74.4137L111.114 70.5811L109.602 70.8118Z" fill="url(#paint8_linear_0_2819)"/>
<g opacity="0.17">
<path opacity="0.038" d="M50.6797 128.032C50.6797 134.018 64.6771 138.902 81.956 138.927C99.235 138.953 113.245 134.108 113.245 128.122C113.245 122.135 99.2478 117.252 81.9689 117.226C64.7028 117.213 50.6925 122.046 50.6797 128.032Z" fill="#4A0101"/>
<path opacity="0.077" d="M51.5117 128.044C51.5117 133.877 65.1374 138.619 81.9549 138.645C98.7724 138.671 112.411 133.954 112.424 128.121C112.424 122.289 98.798 117.546 81.9805 117.521C65.1631 117.495 51.5117 122.199 51.5117 128.044Z" fill="#480202"/>
<path opacity="0.115" d="M52.332 128.044C52.332 133.723 65.586 138.337 81.9548 138.363C98.3237 138.388 111.59 133.799 111.59 128.121C111.59 122.443 98.3365 117.828 81.9677 117.802C65.6117 117.777 52.3448 122.366 52.332 128.044Z" fill="#460303"/>
<path opacity="0.154" d="M53.1641 128.044C53.1641 133.556 66.0463 138.055 81.9537 138.068C97.8611 138.094 110.756 133.633 110.769 128.121C110.769 122.609 97.8867 118.11 81.9793 118.097C66.0592 118.072 53.1641 122.52 53.1641 128.044Z" fill="#440404"/>
<path opacity="0.192" d="M53.9844 128.044C53.9844 133.402 66.5077 137.761 81.9536 137.786C97.3995 137.812 109.936 133.479 109.936 128.121C109.936 122.763 97.4124 118.405 81.9665 118.38C66.5206 118.354 53.9972 122.686 53.9844 128.044Z" fill="#420505"/>
<path opacity="0.231" d="M54.8164 128.044C54.8164 133.248 66.968 137.478 81.9525 137.491C96.9498 137.517 109.101 133.312 109.101 128.108C109.101 122.904 96.9498 118.674 81.9653 118.661C66.9809 118.648 54.8164 122.84 54.8164 128.044Z" fill="#400606"/>
<path opacity="0.269" d="M55.6484 128.044C55.6484 133.082 67.4284 137.184 81.9642 137.209C96.5 137.235 108.293 133.159 108.293 128.121C108.293 123.084 96.5128 118.982 81.977 118.956C67.4283 118.931 55.6484 123.007 55.6484 128.044Z" fill="#3E0606"/>
<path opacity="0.308" d="M56.4688 128.044C56.4688 132.928 67.8769 136.901 81.9513 136.914C96.0257 136.927 107.447 132.992 107.447 128.108C107.447 123.224 96.0385 119.251 81.9641 119.238C67.8898 119.212 56.4688 123.16 56.4688 128.044Z" fill="#3C0707"/>
<path opacity="0.346" d="M57.3125 128.045C57.3125 132.775 68.349 136.62 81.9747 136.633C95.6004 136.646 106.65 132.839 106.65 128.109C106.65 123.379 95.6132 119.533 81.9875 119.521C68.3618 119.508 57.3125 123.328 57.3125 128.045Z" fill="#3A0808"/>
<path opacity="0.385" d="M58.1328 128.044C58.1328 132.608 68.7975 136.325 81.9618 136.351C95.1261 136.363 105.804 132.685 105.804 128.108C105.804 123.545 95.1389 119.828 81.9746 119.802C68.8104 119.789 58.1328 123.481 58.1328 128.044Z" fill="#380909"/>
<path opacity="0.423" d="M58.9648 128.044C58.9648 132.454 69.2578 136.043 81.9735 136.056C94.6763 136.069 104.982 132.518 104.995 128.109C104.995 123.699 94.7019 120.11 81.9863 120.097C69.2707 120.084 58.9648 123.635 58.9648 128.044Z" fill="#360A0A"/>
<path opacity="0.462" d="M59.7852 128.044C59.7852 132.3 69.7064 135.748 81.9606 135.774C94.2148 135.786 104.149 132.364 104.149 128.108C104.149 123.853 94.2276 120.405 81.9734 120.379C69.7193 120.366 59.7852 123.801 59.7852 128.044Z" fill="#340B0B"/>
<path opacity="0.5" d="M60.6172 128.057C60.6172 132.146 70.1796 135.479 81.9723 135.492C93.765 135.505 103.327 132.21 103.34 128.108C103.34 124.019 93.7778 120.687 81.9851 120.674C70.1796 120.661 60.6172 123.955 60.6172 128.057Z" fill="#330C0C"/>
<path opacity="0.538" d="M61.4375 128.057C61.4375 131.993 70.6281 135.184 81.9594 135.21C93.3035 135.223 102.494 132.044 102.494 128.121C102.494 124.186 93.3035 120.995 81.9722 120.969C70.641 120.943 61.4375 124.122 61.4375 128.057Z" fill="#310D0D"/>
<path opacity="0.577" d="M62.2695 128.057C62.2695 131.826 71.0885 134.902 81.9711 134.915C92.8537 134.928 101.673 131.877 101.685 128.108C101.698 124.34 92.8665 121.263 81.9839 121.251C71.0884 121.225 62.2695 124.276 62.2695 128.057Z" fill="#2F0E0E"/>
<path opacity="0.615" d="M63.0898 128.057C63.0898 131.672 71.537 134.62 81.9582 134.633C92.3794 134.646 100.839 131.723 100.839 128.108C100.839 124.494 92.3922 121.546 81.971 121.533C71.5499 121.52 63.0898 124.442 63.0898 128.057Z" fill="#2D0F0F"/>
<path opacity="0.654" d="M63.9219 128.057C63.9219 131.518 71.9973 134.326 81.9699 134.338C91.9424 134.351 100.018 131.557 100.018 128.109C100.018 124.661 91.9424 121.841 81.9699 121.828C72.0102 121.802 63.9219 124.597 63.9219 128.057Z" fill="#2B1010"/>
<path opacity="0.692" d="M64.7422 128.057C64.7422 131.351 72.4459 134.043 81.957 134.056C91.4681 134.069 99.1846 131.403 99.1846 128.108C99.1846 124.814 91.4809 122.122 81.9698 122.109C72.4587 122.097 64.755 124.763 64.7422 128.057Z" fill="#291111"/>
<path opacity="0.731" d="M65.5745 128.057C65.5745 131.198 72.9065 133.749 81.9689 133.761C91.0186 133.774 98.3634 131.236 98.3634 128.096C98.3634 124.955 91.0314 122.404 81.9689 122.392C72.9193 122.379 65.5745 124.917 65.5745 128.057Z" fill="#271212"/>
<path opacity="0.769" d="M66.3948 128.057C66.3948 131.044 73.355 133.467 81.956 133.48C90.557 133.492 97.5301 131.083 97.5301 128.096C97.5301 125.109 90.5699 122.687 81.9689 122.674C73.3679 122.674 66.4076 125.071 66.3948 128.057Z" fill="#251212"/>
<path opacity="0.808" d="M67.2266 128.057C67.2266 130.877 73.8279 133.184 81.9675 133.184C90.107 133.184 96.7084 130.916 96.7084 128.096C96.7084 125.276 90.107 122.968 81.9675 122.968C73.8279 122.955 67.2266 125.237 67.2266 128.057Z" fill="#231313"/>
<path opacity="0.846" d="M68.0469 128.057C68.0469 130.723 74.2765 132.889 81.9546 132.902C89.6327 132.915 95.8752 130.762 95.8752 128.095C95.8752 125.429 89.6455 123.263 81.9674 123.25C74.2893 123.237 68.0597 125.391 68.0469 128.057Z" fill="#211414"/>
<path opacity="0.885" d="M68.8789 128.057C68.8789 130.569 74.7368 132.607 81.9663 132.607C89.1957 132.62 95.0536 130.595 95.0536 128.083C95.0536 125.57 89.1957 123.532 81.9663 123.532C74.7368 123.532 68.8789 125.557 68.8789 128.057Z" fill="#1F1515"/>
<path opacity="0.923" d="M69.7109 128.057C69.7109 130.403 75.1971 132.313 81.9651 132.326C88.7331 132.338 94.2193 130.441 94.2321 128.096C94.2321 125.75 88.746 123.84 81.9779 123.827C75.1971 123.814 69.7109 125.711 69.7109 128.057Z" fill="#1D1616"/>
<path opacity="0.962" d="M70.5312 128.07C70.5312 130.262 75.6457 132.043 81.9651 132.056C88.2844 132.069 93.3989 130.3 93.3989 128.108C93.3989 125.916 88.2844 124.134 81.9651 124.122C75.6585 124.109 70.5312 125.878 70.5312 128.07Z" fill="#1B1717"/>
<path d="M71.3633 128.07C71.3633 130.095 76.106 131.749 81.9639 131.762C87.8218 131.774 92.5646 130.134 92.5774 128.096C92.5774 126.07 87.8347 124.417 81.9767 124.404C76.106 124.391 71.3633 126.032 71.3633 128.07Z" fill="#191818"/>
</g>
<g opacity="0.17">
<path opacity="0.038" d="M94.7422 216.388C94.7422 222.374 108.74 227.258 126.019 227.283C143.297 227.309 157.308 222.464 157.308 216.478C157.308 210.491 143.31 205.608 126.031 205.582C108.752 205.556 94.7422 210.389 94.7422 216.388Z" fill="#4A0101"/>
<path opacity="0.077" d="M95.5625 216.388C95.5625 222.22 109.188 226.963 126.006 226.988C142.823 227.014 156.462 222.297 156.474 216.465C156.474 210.632 142.849 205.89 126.031 205.864C109.214 205.838 95.5753 210.555 95.5625 216.388Z" fill="#480202"/>
<path opacity="0.115" d="M96.3945 216.388C96.3945 222.066 109.649 226.681 126.017 226.706C142.386 226.732 155.653 222.143 155.653 216.465C155.653 210.786 142.399 206.172 126.03 206.146C109.661 206.133 96.3945 210.709 96.3945 216.388Z" fill="#460303"/>
<path opacity="0.154" d="M97.2148 216.388C97.2148 221.9 110.097 226.399 126.004 226.412C141.912 226.437 154.807 221.977 154.82 216.465C154.82 210.953 141.937 206.454 126.03 206.441C110.123 206.415 97.2277 210.876 97.2148 216.388Z" fill="#440404"/>
<path opacity="0.192" d="M98.0469 216.388C98.0469 221.746 110.57 226.104 126.016 226.129C141.462 226.155 153.998 221.823 153.998 216.465C153.998 211.107 141.475 206.748 126.029 206.723C110.57 206.697 98.0469 211.03 98.0469 216.388Z" fill="#420505"/>
<path opacity="0.231" d="M98.8672 216.388C98.8672 221.592 111.019 225.822 126.003 225.835C141.001 225.86 153.152 221.656 153.152 216.452C153.152 211.248 141.001 207.018 126.016 207.005C111.032 206.992 98.88 211.184 98.8672 216.388Z" fill="#400606"/>
<path opacity="0.269" d="M99.6992 216.388C99.6992 221.426 111.479 225.527 126.015 225.553C140.551 225.579 152.344 221.502 152.344 216.465C152.344 211.427 140.564 207.326 126.028 207.3C111.492 207.274 99.6992 211.35 99.6992 216.388Z" fill="#3E0606"/>
<path opacity="0.308" d="M100.52 216.388C100.52 221.271 111.928 225.245 126.002 225.258C140.076 225.271 151.497 221.335 151.497 216.452C151.497 211.568 140.089 207.594 126.015 207.582C111.941 207.569 100.532 211.504 100.52 216.388Z" fill="#3C0707"/>
<path opacity="0.346" d="M101.363 216.388C101.363 221.118 112.4 224.963 126.025 224.976C139.651 224.989 150.7 221.182 150.7 216.452C150.7 211.722 139.664 207.877 126.038 207.864C112.413 207.851 101.363 211.671 101.363 216.388Z" fill="#3A0808"/>
<path opacity="0.385" d="M102.184 216.4C102.184 220.964 112.848 224.681 126.013 224.707C139.177 224.719 149.854 221.041 149.854 216.464C149.854 211.901 139.19 208.184 126.025 208.158C112.874 208.145 102.196 211.824 102.184 216.4Z" fill="#380909"/>
<path opacity="0.423" d="M103.016 216.401C103.016 220.81 113.309 224.399 126.024 224.412C138.727 224.425 149.033 220.874 149.046 216.465C149.046 212.055 138.753 208.466 126.037 208.453C113.321 208.428 103.016 211.991 103.016 216.401Z" fill="#360A0A"/>
<path opacity="0.462" d="M103.848 216.401C103.848 220.656 113.769 224.104 126.023 224.13C138.277 224.143 148.211 220.72 148.211 216.465C148.211 212.209 138.29 208.761 126.036 208.735C113.782 208.71 103.848 212.145 103.848 216.401Z" fill="#340B0B"/>
<path opacity="0.5" d="M104.668 216.4C104.668 220.489 114.23 223.822 126.023 223.835C137.816 223.848 147.378 220.553 147.391 216.452C147.391 212.363 137.829 209.03 126.036 209.017C114.23 209.004 104.668 212.311 104.668 216.4Z" fill="#330C0C"/>
<path opacity="0.538" d="M105.5 216.401C105.5 220.336 114.691 223.528 126.022 223.553C137.366 223.566 146.557 220.387 146.557 216.465C146.557 212.53 137.366 209.338 126.035 209.312C114.691 209.287 105.5 212.465 105.5 216.401Z" fill="#310D0D"/>
<path opacity="0.577" d="M106.32 216.4C106.32 220.169 115.139 223.245 126.022 223.258C136.904 223.271 145.723 220.22 145.736 216.452C145.749 212.683 136.917 209.607 126.035 209.594C115.152 209.581 106.32 212.632 106.32 216.4Z" fill="#2F0E0E"/>
<path opacity="0.615" d="M107.152 216.4C107.152 220.015 115.6 222.963 126.021 222.976C136.442 222.989 144.902 220.066 144.902 216.452C144.902 212.837 136.455 209.889 126.034 209.876C115.612 209.863 107.152 212.786 107.152 216.4Z" fill="#2D0F0F"/>
<path opacity="0.654" d="M107.973 216.401C107.973 219.862 116.048 222.669 126.021 222.682C135.993 222.694 144.069 219.9 144.069 216.452C144.069 213.004 135.993 210.184 126.021 210.171C116.061 210.158 107.973 212.94 107.973 216.401Z" fill="#2B1010"/>
<path opacity="0.692" d="M108.805 216.401C108.805 219.695 116.509 222.387 126.02 222.4C135.531 222.413 143.247 219.746 143.247 216.452C143.247 213.158 135.544 210.466 126.033 210.453C116.521 210.44 108.805 213.107 108.805 216.401Z" fill="#291111"/>
<path opacity="0.731" d="M109.625 216.401C109.625 219.541 116.957 222.092 126.02 222.105C135.082 222.117 142.414 219.579 142.414 216.439C142.414 213.299 135.082 210.748 126.02 210.735C116.957 210.722 109.625 213.26 109.625 216.401Z" fill="#271212"/>
<path opacity="0.769" d="M110.457 216.401C110.457 219.387 117.417 221.81 126.018 221.823C134.619 221.836 141.592 219.426 141.592 216.439C141.592 213.453 134.632 211.03 126.031 211.017C117.43 211.004 110.457 213.427 110.457 216.401Z" fill="#251212"/>
<path opacity="0.808" d="M111.277 216.401C111.277 219.221 117.879 221.528 126.018 221.528C134.158 221.541 140.759 219.259 140.759 216.439C140.759 213.619 134.158 211.312 126.018 211.312C117.879 211.312 111.277 213.581 111.277 216.401Z" fill="#231313"/>
<path opacity="0.846" d="M112.109 216.413C112.109 219.08 118.339 221.246 126.017 221.259C133.695 221.271 139.938 219.118 139.938 216.452C139.938 213.786 133.708 211.619 126.03 211.607C118.339 211.594 112.109 213.747 112.109 216.413Z" fill="#211414"/>
<path opacity="0.885" d="M112.93 216.414C112.93 218.926 118.788 220.964 126.017 220.964C133.247 220.977 139.104 218.952 139.104 216.439C139.104 213.927 133.247 211.889 126.017 211.889C118.8 211.876 112.943 213.901 112.93 216.414Z" fill="#1F1515"/>
<path opacity="0.923" d="M113.762 216.414C113.762 218.759 119.248 220.669 126.016 220.682C132.784 220.695 138.27 218.798 138.283 216.452C138.296 214.106 132.797 212.196 126.029 212.184C119.248 212.171 113.762 214.068 113.762 216.414Z" fill="#1D1616"/>
<path opacity="0.962" d="M114.582 216.413C114.582 218.605 119.696 220.387 126.016 220.4C132.335 220.413 137.45 218.644 137.45 216.452C137.45 214.26 132.335 212.478 126.016 212.465C119.709 212.453 114.595 214.221 114.582 216.413Z" fill="#1B1717"/>
<path d="M115.414 216.414C115.414 218.439 120.157 220.092 126.015 220.105C131.873 220.118 136.615 218.477 136.628 216.439C136.628 214.414 131.885 212.76 126.028 212.748C120.17 212.735 115.414 214.376 115.414 216.414Z" fill="#191818"/>
</g>
<g opacity="0.17">
<path opacity="0.038" d="M94.7189 169.601C94.7189 175.587 108.716 180.471 125.995 180.497C143.274 180.522 157.284 175.677 157.284 169.691C157.284 163.705 143.287 158.821 126.008 158.796C108.729 158.77 94.7189 163.615 94.7189 169.601Z" fill="#4A0101"/>
<path opacity="0.077" d="M95.5508 169.601C95.5508 175.433 109.177 180.176 125.994 180.202C142.811 180.227 156.45 175.51 156.463 169.678C156.463 163.846 142.837 159.103 126.02 159.077C109.189 159.064 95.5508 163.769 95.5508 169.601Z" fill="#480202"/>
<path opacity="0.115" d="M96.3711 169.601C96.3711 175.28 109.625 179.894 125.994 179.92C142.363 179.945 155.63 175.356 155.63 169.678C155.63 164 142.376 159.385 126.007 159.359C109.651 159.347 96.3711 163.935 96.3711 169.601Z" fill="#460303"/>
<path opacity="0.154" d="M97.2031 169.601C97.2031 175.113 110.085 179.612 125.993 179.625C141.9 179.65 154.795 175.189 154.808 169.678C154.808 164.166 141.926 159.667 126.018 159.654C110.111 159.641 97.2031 164.089 97.2031 169.601Z" fill="#440404"/>
<path opacity="0.192" d="M98.0234 169.601C98.0234 174.959 110.547 179.317 125.993 179.343C141.439 179.368 153.975 175.036 153.975 169.678C153.975 164.32 141.451 159.962 126.006 159.936C110.56 159.923 98.0363 164.243 98.0234 169.601Z" fill="#420505"/>
<path opacity="0.231" d="M98.8555 169.614C98.8555 174.818 111.007 179.048 125.992 179.06C140.976 179.073 153.14 174.882 153.14 169.678C153.14 164.473 140.989 160.243 126.004 160.231C111.007 160.205 98.8555 164.409 98.8555 169.614Z" fill="#400606"/>
<path opacity="0.269" d="M99.6758 169.614C99.6758 174.651 111.456 178.753 125.992 178.779C140.527 178.804 152.32 174.728 152.32 169.691C152.32 164.653 140.54 160.551 126.004 160.526C111.469 160.5 99.6886 164.563 99.6758 169.614Z" fill="#3E0606"/>
<path opacity="0.308" d="M100.508 169.614C100.508 174.498 111.916 178.471 125.99 178.484C140.065 178.497 151.486 174.562 151.486 169.678C151.486 164.794 140.078 160.821 126.003 160.808C111.929 160.782 100.508 164.73 100.508 169.614Z" fill="#3C0707"/>
<path opacity="0.346" d="M101.328 169.614C101.328 174.344 112.365 178.189 125.99 178.202C139.616 178.215 150.665 174.408 150.665 169.678C150.665 164.948 139.629 161.103 126.003 161.09C112.377 161.077 101.341 164.884 101.328 169.614Z" fill="#3A0808"/>
<path opacity="0.385" d="M102.172 169.614C102.172 174.177 112.837 177.895 126.001 177.92C139.165 177.933 149.843 174.254 149.843 169.678C149.843 165.102 139.178 161.398 126.014 161.372C112.849 161.359 102.172 165.051 102.172 169.614Z" fill="#380909"/>
<path opacity="0.423" d="M102.992 169.614C102.992 174.023 113.285 177.612 126.001 177.625C138.704 177.638 149.009 174.087 149.022 169.678C149.022 165.269 138.729 161.679 126.014 161.667C113.311 161.641 103.005 165.204 102.992 169.614Z" fill="#360A0A"/>
<path opacity="0.462" d="M103.824 169.614C103.824 173.87 113.745 177.318 126 177.343C138.254 177.369 148.188 173.934 148.188 169.678C148.188 165.422 138.267 161.974 126.012 161.949C113.758 161.936 103.824 165.371 103.824 169.614Z" fill="#340B0B"/>
<path opacity="0.5" d="M104.645 169.614C104.645 173.703 114.207 177.036 126 177.048C137.792 177.061 147.355 173.767 147.368 169.665C147.38 165.563 137.805 162.243 126.012 162.231C114.22 162.218 104.657 165.525 104.645 169.614Z" fill="#330C0C"/>
<path opacity="0.538" d="M105.477 169.614C105.477 173.549 114.667 176.741 125.998 176.766C137.343 176.779 146.533 173.6 146.533 169.678C146.533 165.743 137.343 162.551 126.011 162.525C114.667 162.513 105.477 165.679 105.477 169.614Z" fill="#310D0D"/>
<path opacity="0.577" d="M106.309 169.614C106.309 173.383 115.128 176.459 126.01 176.472C136.893 176.485 145.712 173.434 145.725 169.665C145.725 165.897 136.906 162.82 126.023 162.808C115.128 162.795 106.309 165.846 106.309 169.614Z" fill="#2F0E0E"/>
<path opacity="0.615" d="M107.129 169.614C107.129 173.229 115.576 176.177 125.997 176.19C136.418 176.202 144.878 173.28 144.878 169.665C144.878 166.05 136.431 163.102 126.01 163.089C115.589 163.089 107.129 165.999 107.129 169.614Z" fill="#2D0F0F"/>
<path opacity="0.654" d="M107.961 169.627C107.961 173.088 116.036 175.895 126.009 175.908C135.981 175.921 144.057 173.126 144.057 169.678C144.057 166.217 135.981 163.41 126.009 163.397C116.036 163.372 107.961 166.166 107.961 169.627Z" fill="#2B1010"/>
<path opacity="0.692" d="M108.781 169.626C108.781 172.921 116.485 175.612 125.996 175.625C135.507 175.638 143.224 172.972 143.224 169.678C143.224 166.383 135.52 163.692 126.009 163.679C116.498 163.666 108.781 166.319 108.781 169.626Z" fill="#291111"/>
<path opacity="0.731" d="M109.614 169.627C109.614 172.767 116.946 175.318 126.008 175.331C135.058 175.344 142.402 172.806 142.402 169.665C142.402 166.525 135.07 163.974 126.008 163.961C116.958 163.948 109.614 166.486 109.614 169.627Z" fill="#271212"/>
<path opacity="0.769" d="M110.434 169.627C110.434 172.613 117.394 175.036 125.995 175.049C134.596 175.062 141.569 172.652 141.569 169.665C141.569 166.679 134.609 164.256 126.008 164.243C117.407 164.23 110.434 166.64 110.434 169.627Z" fill="#251212"/>
<path opacity="0.808" d="M111.266 169.626C111.266 172.446 117.867 174.754 126.007 174.754C134.146 174.767 140.747 172.485 140.747 169.665C140.747 166.845 134.146 164.538 126.007 164.538C117.867 164.525 111.266 166.806 111.266 169.626Z" fill="#231313"/>
<path opacity="0.846" d="M112.086 169.627C112.086 172.293 118.316 174.459 125.994 174.472C133.672 174.485 139.914 172.331 139.914 169.665C139.914 166.999 133.685 164.833 126.006 164.82C118.316 164.807 112.086 166.961 112.086 169.627Z" fill="#211414"/>
<path opacity="0.885" d="M112.918 169.626C112.918 172.139 118.776 174.177 126.005 174.177C133.235 174.19 139.093 172.164 139.093 169.652C139.093 167.14 133.235 165.102 126.005 165.102C118.776 165.102 112.918 167.114 112.918 169.626Z" fill="#1F1515"/>
<path opacity="0.923" d="M113.738 169.627C113.738 171.972 119.224 173.882 125.992 173.895C132.76 173.908 138.247 172.011 138.259 169.665C138.259 167.319 132.773 165.409 126.005 165.397C119.237 165.384 113.738 167.281 113.738 169.627Z" fill="#1D1616"/>
<path opacity="0.962" d="M114.57 169.627C114.57 171.819 119.685 173.6 126.004 173.613C132.324 173.626 137.438 171.857 137.438 169.665C137.438 167.473 132.324 165.692 126.004 165.679C119.685 165.666 114.57 167.435 114.57 169.627Z" fill="#1B1717"/>
<path d="M115.391 169.627C115.391 171.652 120.133 173.306 125.991 173.319C131.849 173.331 136.592 171.691 136.605 169.653C136.605 167.627 131.862 165.974 126.004 165.961C120.146 165.961 115.391 167.602 115.391 169.627Z" fill="#191818"/>
</g>
<g opacity="0.17">
<path opacity="0.038" d="M146.844 169.601C146.844 175.587 160.841 180.471 178.12 180.496C195.399 180.522 209.409 175.677 209.409 169.69C209.409 163.704 195.412 158.821 178.133 158.795C160.854 158.769 146.844 163.615 146.844 169.601Z" fill="#4A0101"/>
<path opacity="0.077" d="M147.664 169.601C147.664 175.433 161.29 180.176 178.107 180.202C194.925 180.227 208.563 175.51 208.576 169.678C208.576 163.846 194.95 159.103 178.133 159.077C161.315 159.064 147.677 163.769 147.664 169.601Z" fill="#480202"/>
<path opacity="0.115" d="M148.496 169.601C148.496 175.28 161.75 179.894 178.119 179.92C194.488 179.945 207.755 175.356 207.755 169.678C207.755 164 194.501 159.385 178.132 159.359C161.763 159.347 148.496 163.935 148.496 169.601Z" fill="#460303"/>
<path opacity="0.154" d="M149.328 169.601C149.328 175.113 162.21 179.612 178.118 179.625C194.025 179.65 206.92 175.19 206.933 169.678C206.933 164.166 194.051 159.667 178.143 159.654C162.223 159.628 149.328 164.089 149.328 169.601Z" fill="#440404"/>
<path opacity="0.192" d="M150.148 169.601C150.148 174.959 162.672 179.317 178.118 179.343C193.564 179.368 206.1 175.036 206.1 169.678C206.1 164.32 193.576 159.962 178.131 159.936C162.685 159.923 150.148 164.243 150.148 169.601Z" fill="#420505"/>
<path opacity="0.231" d="M150.98 169.614C150.98 174.818 163.132 179.048 178.117 179.06C193.114 179.086 205.265 174.882 205.265 169.678C205.265 164.473 193.114 160.243 178.129 160.231C163.132 160.205 150.98 164.409 150.98 169.614Z" fill="#400606"/>
<path opacity="0.269" d="M151.801 169.614C151.801 174.651 163.581 178.753 178.117 178.779C192.652 178.804 204.445 174.728 204.445 169.691C204.445 164.653 192.665 160.551 178.129 160.526C163.594 160.5 151.801 164.563 151.801 169.614Z" fill="#3E0606"/>
<path opacity="0.308" d="M152.645 169.614C152.645 174.497 164.053 178.471 178.127 178.484C192.201 178.497 203.622 174.562 203.622 169.678C203.622 164.794 192.214 160.82 178.14 160.808C164.066 160.795 152.645 164.73 152.645 169.614Z" fill="#3C0707"/>
<path opacity="0.346" d="M153.465 169.614C153.465 174.344 164.501 178.189 178.127 178.202C191.753 178.215 202.802 174.408 202.802 169.678C202.802 164.948 191.766 161.103 178.14 161.09C164.514 161.077 153.465 164.884 153.465 169.614Z" fill="#3A0808"/>
<path opacity="0.385" d="M154.297 169.614C154.297 174.177 164.962 177.895 178.126 177.92C191.29 177.933 201.968 174.254 201.968 169.678C201.968 165.115 191.303 161.398 178.139 161.372C164.974 161.359 154.297 165.051 154.297 169.614Z" fill="#380909"/>
<path opacity="0.423" d="M155.117 169.614C155.117 174.023 165.41 177.612 178.126 177.625C190.829 177.638 201.134 174.087 201.147 169.678C201.147 165.268 190.854 161.679 178.139 161.667C165.423 161.654 155.117 165.204 155.117 169.614Z" fill="#360A0A"/>
<path opacity="0.462" d="M155.949 169.614C155.949 173.87 165.87 177.318 178.125 177.344C190.379 177.356 200.313 173.934 200.313 169.678C200.313 165.423 190.392 161.975 178.137 161.949C165.883 161.923 155.949 165.371 155.949 169.614Z" fill="#340B0B"/>
<path opacity="0.5" d="M156.77 169.614C156.77 173.703 166.332 177.036 178.125 177.048C189.917 177.061 199.48 173.767 199.493 169.665C199.493 165.576 189.93 162.243 178.137 162.231C166.345 162.218 156.782 165.525 156.77 169.614Z" fill="#330C0C"/>
<path opacity="0.538" d="M157.602 169.614C157.602 173.549 166.792 176.741 178.123 176.766C189.468 176.779 198.658 173.6 198.658 169.678C198.658 165.743 189.468 162.551 178.136 162.525C166.792 162.513 157.602 165.679 157.602 169.614Z" fill="#310D0D"/>
<path opacity="0.577" d="M158.422 169.614C158.422 173.383 167.241 176.459 178.123 176.472C189.006 176.485 197.825 173.434 197.838 169.665C197.838 165.897 189.019 162.82 178.136 162.808C167.254 162.795 158.435 165.846 158.422 169.614Z" fill="#2F0E0E"/>
<path opacity="0.615" d="M159.254 169.614C159.254 173.229 167.701 176.177 178.122 176.19C188.543 176.202 197.003 173.28 197.003 169.665C197.003 166.05 188.556 163.102 178.135 163.089C167.714 163.089 159.254 165.999 159.254 169.614Z" fill="#2D0F0F"/>
<path opacity="0.654" d="M160.074 169.627C160.074 173.088 168.15 175.895 178.122 175.908C188.095 175.921 196.17 173.126 196.17 169.678C196.17 166.217 188.095 163.41 178.122 163.397C168.162 163.372 160.087 166.166 160.074 169.627Z" fill="#2B1010"/>
<path opacity="0.692" d="M160.906 169.627C160.906 172.921 168.61 175.613 178.121 175.626C187.632 175.639 195.349 172.972 195.349 169.678C195.349 166.384 187.645 163.692 178.134 163.679C168.623 163.666 160.906 166.32 160.906 169.627Z" fill="#291111"/>
<path opacity="0.731" d="M161.727 169.627C161.727 172.767 169.059 175.318 178.121 175.331C187.171 175.344 194.516 172.806 194.516 169.665C194.516 166.525 187.184 163.974 178.121 163.961C169.072 163.948 161.74 166.486 161.727 169.627Z" fill="#271212"/>
<path opacity="0.769" d="M162.559 169.627C162.559 172.613 169.519 175.036 178.12 175.049C186.721 175.062 193.694 172.652 193.694 169.665C193.694 166.679 186.734 164.256 178.133 164.243C169.532 164.23 162.559 166.64 162.559 169.627Z" fill="#251212"/>
<path opacity="0.808" d="M163.391 169.626C163.391 172.446 169.992 174.754 178.132 174.754C186.271 174.754 192.872 172.485 192.872 169.665C192.872 166.845 186.271 164.538 178.132 164.538C169.992 164.525 163.391 166.806 163.391 169.626Z" fill="#231313"/>
<path opacity="0.846" d="M164.211 169.627C164.211 172.293 170.441 174.459 178.119 174.472C185.797 174.485 192.039 172.331 192.039 169.665C192.039 166.999 185.81 164.833 178.131 164.82C170.441 164.807 164.211 166.961 164.211 169.627Z" fill="#211414"/>
<path opacity="0.885" d="M165.043 169.626C165.043 172.139 170.901 174.177 178.13 174.177C185.36 174.19 191.218 172.164 191.218 169.652C191.218 167.14 185.36 165.102 178.13 165.102C170.901 165.102 165.043 167.114 165.043 169.626Z" fill="#1F1515"/>
<path opacity="0.923" d="M165.863 169.627C165.863 171.972 171.349 173.882 178.117 173.895C184.885 173.908 190.372 172.011 190.384 169.665C190.384 167.319 184.898 165.409 178.13 165.397C171.362 165.384 165.863 167.281 165.863 169.627Z" fill="#1D1616"/>
<path opacity="0.962" d="M166.695 169.627C166.695 171.819 171.81 173.6 178.129 173.613C184.448 173.626 189.563 171.857 189.563 169.665C189.563 167.473 184.448 165.692 178.129 165.679C171.81 165.666 166.695 167.435 166.695 169.627Z" fill="#1B1717"/>
<path d="M167.516 169.627C167.516 171.652 172.258 173.306 178.116 173.319C183.974 173.331 188.717 171.691 188.73 169.653C188.73 167.627 183.987 165.974 178.129 165.961C172.271 165.961 167.516 167.602 167.516 169.627Z" fill="#191818"/>
</g>
<path d="M151.673 139.594L151.699 158.334L161.12 163.808L161.094 145.068L151.673 139.594Z" fill="url(#paint9_linear_0_2819)"/>
<path d="M161.094 145.068L161.12 163.808L171.567 157.77L171.541 139.03L161.094 145.068Z" fill="url(#paint10_linear_0_2819)"/>
<path d="M151.673 139.594L161.094 145.067L171.541 139.03L162.12 133.557L151.673 139.594Z" fill="#AEFFC3"/>
<path d="M169.836 129.403L169.875 167.819L179.296 173.293L179.271 134.877L169.836 129.403Z" fill="url(#paint11_linear_0_2819)"/>
<path d="M179.271 134.877L179.296 173.293L189.743 167.269L189.717 128.84L179.271 134.877Z" fill="url(#paint12_linear_0_2819)"/>
<path d="M169.836 129.404L179.271 134.877L189.717 128.84L180.296 123.366L169.836 129.404Z" fill="#AEFFC3"/>
<path d="M188.013 139.863L188.051 177.305L197.473 182.791L197.434 145.349L188.013 139.863Z" fill="url(#paint13_linear_0_2819)"/>
<path d="M197.434 145.35L197.473 182.792L207.92 176.754L207.894 139.312L197.434 145.35Z" fill="url(#paint14_linear_0_2819)"/>
<path d="M188.013 139.863L197.434 145.35L207.894 139.312L198.473 133.839L188.013 139.863Z" fill="#AEFFC3"/>
<path d="M206.188 134.108L206.227 186.803L215.648 192.277L215.609 139.594L206.188 134.108Z" fill="url(#paint15_linear_0_2819)"/>
<path d="M215.609 139.594L215.648 192.277L226.095 186.239L226.069 133.557L215.609 139.594Z" fill="url(#paint16_linear_0_2819)"/>
<path d="M206.188 134.108L215.609 139.594L226.069 133.557L216.648 128.083L206.188 134.108Z" fill="#AEFFC3"/>
<path d="M196.029 89.1414C196.029 95.8196 201.066 104.075 207.283 107.587C209.155 108.651 210.924 109.151 212.487 109.163L216.038 118.495C213.423 118.482 208.77 118.521 205.617 116.752C195.157 110.843 182.621 98.3576 182.621 87.1161C182.621 75.8874 196.824 69.2604 207.283 75.1696C215.705 79.9251 222.832 89.8464 225.306 99.4087L218.435 103.587C216.961 97.909 211.834 88.8466 206.822 86.0266C205.271 85.1549 204.245 82.0657 202.899 81.9119C198.862 81.4376 196.029 84.1423 196.029 89.1414Z" fill="url(#paint17_linear_0_2819)"/>
<path d="M226.221 106.19C226.221 114.034 223.593 119.482 213.595 121.725L212.493 109.151C216.095 109.164 219.645 108.061 218.44 103.562L225.311 99.3833C225.9 101.703 226.221 103.998 226.221 106.19Z" fill="url(#paint18_linear_0_2819)"/>
<path d="M189.164 93.32C189.164 99.9983 194.201 108.253 200.418 111.765C202.289 112.829 204.058 113.329 205.622 113.342L209.173 122.674C206.558 122.661 203.571 121.815 200.418 120.033C189.958 114.124 181.473 100.216 181.473 88.9874C181.473 77.7587 189.945 73.439 200.418 79.3482C208.839 84.1037 215.966 94.025 218.44 103.587L211.121 102.011C209.647 96.3323 205.417 90.4359 200.418 87.6159C194.201 84.0781 189.164 86.6417 189.164 93.32Z" fill="url(#paint19_linear_0_2819)"/>
<path d="M219.354 110.368C219.354 118.213 215.227 122.686 209.164 122.661L205.613 113.329C209.215 113.342 211.663 110.689 211.663 106.023C211.663 104.715 211.471 103.357 211.112 101.972L218.431 103.549C219.034 105.882 219.354 108.176 219.354 110.368Z" fill="url(#paint20_linear_0_2819)"/>
<path d="M94.6719 78.8614L95.9152 65.71L105.811 70.9141L111.848 74.1059L104.209 76.2209H104.183L94.6719 78.8614Z" fill="url(#paint21_linear_0_2819)"/>
<path d="M47.3968 71.286C47.4609 71.1834 47.5122 71.0809 47.5635 70.9784C47.6276 70.863 47.6788 70.7476 47.7301 70.6194C47.7685 70.5425 47.807 70.4528 47.8455 70.3759C47.8839 70.299 47.9095 70.2221 47.9352 70.1324C47.9736 70.017 48.0249 69.9144 48.0634 69.7991C48.089 69.735 48.1018 69.6709 48.1275 69.594C48.1659 69.4658 48.2044 69.3376 48.2428 69.1966C48.2556 69.1454 48.2685 69.0813 48.2941 69.03C48.3454 68.8505 48.3838 68.6583 48.4223 68.466C48.4223 68.4404 48.4351 68.4275 48.4351 68.4019C48.4735 68.2353 48.4992 68.0558 48.5248 67.8892C48.5376 67.8379 48.5376 67.7866 48.5505 67.7225C48.5761 67.5559 48.5889 67.3893 48.6145 67.2226C48.6145 67.1842 48.6274 67.1585 48.6274 67.1201C48.6402 66.9278 48.653 66.7355 48.6658 66.5304C48.6658 66.4792 48.6658 66.4151 48.6658 66.3638C48.6658 66.2228 48.6658 66.0818 48.6658 65.9408C48.6658 65.8639 48.6658 65.787 48.6658 65.7101C48.6658 65.5947 48.653 65.4665 48.653 65.3512C48.653 65.2486 48.6402 65.1589 48.6274 65.0564C48.6145 64.9666 48.6017 64.8641 48.6017 64.7744C48.5889 64.6205 48.5633 64.4539 48.5376 64.3001C48.5248 64.1975 48.512 64.1078 48.4864 64.0181C48.4735 63.9412 48.4607 63.8643 48.4351 63.8002C48.4095 63.6848 48.3838 63.5566 48.3454 63.4413C48.3325 63.3772 48.3069 63.3003 48.2941 63.2362C48.2556 63.108 48.2172 62.9926 48.1787 62.8644C48.1531 62.8132 48.1403 62.7491 48.1146 62.6978C48.0505 62.5184 47.9865 62.3517 47.9095 62.1851C47.8326 62.0313 47.7557 61.8774 47.6788 61.7364C47.6532 61.698 47.6404 61.6595 47.6147 61.6211C47.5635 61.5442 47.525 61.4801 47.4737 61.4032C47.4096 61.3006 47.3327 61.1981 47.2558 61.1084C47.2045 61.0443 47.1661 60.993 47.1148 60.9289C47.0636 60.8776 47.0251 60.8264 46.9738 60.7751C46.9097 60.711 46.8456 60.6469 46.7815 60.5956C46.7431 60.5572 46.7046 60.5315 46.6662 60.4931C46.5893 60.429 46.4996 60.3649 46.4098 60.3136C46.3842 60.3008 46.3714 60.288 46.3457 60.2752C46.2432 60.2111 46.1278 60.147 46.0253 60.1085C45.9996 60.0957 45.974 60.0829 45.9484 60.0701C45.8586 60.0316 45.7689 60.006 45.6792 59.9804C45.6535 59.9675 45.6279 59.9675 45.5895 59.9547C45.4741 59.9291 45.3587 59.9034 45.2434 59.8906L94.7856 65.2743C94.7985 65.2743 94.8113 65.2743 94.8113 65.2743C94.901 65.2871 94.9907 65.2999 95.0804 65.3127C95.0933 65.3127 95.1189 65.3255 95.1317 65.3255C95.1574 65.3384 95.183 65.3384 95.2214 65.3512C95.2599 65.364 95.3112 65.3768 95.3496 65.3896C95.4009 65.4024 95.4394 65.4281 95.4778 65.4409C95.5034 65.4537 95.5291 65.4665 95.5547 65.4794C95.5675 65.4922 95.5804 65.4922 95.5932 65.4922C95.6829 65.5306 95.7726 65.5819 95.8495 65.6332L95.8624 65.646C95.888 65.6588 95.9008 65.6716 95.9264 65.6844C95.9905 65.7229 96.0546 65.7742 96.1187 65.8126C96.1444 65.8254 96.1572 65.8511 96.1828 65.8639C96.2213 65.8895 96.2597 65.928 96.2982 65.9664C96.3366 65.9921 96.3623 66.0177 96.4007 66.0562C96.4264 66.0818 96.452 66.1203 96.4904 66.1459C96.5417 66.1972 96.5802 66.2484 96.6314 66.2997C96.6571 66.3254 96.6827 66.351 96.7084 66.3766C96.734 66.4023 96.7468 66.4407 96.7725 66.4664C96.8494 66.5561 96.9135 66.6586 96.9904 66.7612C97.016 66.7996 97.0416 66.8253 97.0673 66.8637C97.0929 66.9022 97.1057 66.9406 97.1314 66.9791C97.157 67.0175 97.1698 67.056 97.1954 67.0944C97.2724 67.2354 97.3493 67.3893 97.4262 67.5431C97.5031 67.7097 97.5672 67.8764 97.6313 68.0558C97.6569 68.1071 97.6697 68.1712 97.6954 68.2224C97.7338 68.3378 97.7723 68.466 97.8107 68.5942C97.8364 68.6583 97.8492 68.7352 97.862 68.7993C97.8876 68.9146 97.9261 69.03 97.9517 69.1582C97.9645 69.2351 97.9774 69.2992 98.003 69.3761C98.0158 69.4274 98.0286 69.4658 98.0286 69.5171C98.0414 69.5684 98.0415 69.6196 98.0543 69.6709C98.0799 69.8247 98.1055 69.9785 98.1184 70.1452C98.1184 70.1964 98.1312 70.2477 98.144 70.299C98.144 70.3374 98.144 70.3887 98.1568 70.4272C98.1696 70.5297 98.1696 70.6194 98.1825 70.722C98.1825 70.7861 98.1953 70.8502 98.1953 70.9143C98.1953 70.9655 98.1953 71.0168 98.1953 71.0809C98.1953 71.1578 98.1953 71.2347 98.1953 71.3116C98.1953 71.3629 98.1953 71.4142 98.1953 71.4654C98.1953 71.5552 98.1953 71.6449 98.1825 71.7346C98.1825 71.7859 98.1825 71.85 98.1825 71.9013C98.1825 71.9269 98.1825 71.9525 98.1825 71.9782C98.1696 72.1448 98.1696 72.2986 98.144 72.4653C98.144 72.4781 98.144 72.4909 98.144 72.4909C98.144 72.5294 98.1312 72.555 98.1312 72.5934C98.1184 72.7088 98.1055 72.8242 98.0927 72.9267C98.0799 72.978 98.0799 73.0293 98.0671 73.0805C98.0543 73.1318 98.0543 73.1831 98.0414 73.2472C98.0286 73.2984 98.0286 73.3369 98.0158 73.3882C97.9902 73.5164 97.9645 73.6317 97.9389 73.7599C97.9389 73.7855 97.9261 73.7984 97.9261 73.824V73.8368C97.8876 73.9906 97.862 74.1444 97.8235 74.2983C97.8107 74.3239 97.8107 74.3495 97.7979 74.388C97.7851 74.4393 97.7723 74.5034 97.7466 74.5546C97.721 74.6315 97.7082 74.7084 97.6825 74.7725C97.6697 74.8366 97.6441 74.8879 97.6313 74.9392C97.6056 75.0033 97.5928 75.0674 97.5672 75.1443C97.5544 75.1827 97.5415 75.2212 97.5287 75.2724C97.5031 75.3494 97.4775 75.4134 97.439 75.4904C97.4134 75.5673 97.3749 75.657 97.3493 75.7339C97.3365 75.7595 97.3236 75.7852 97.3108 75.8108C97.2852 75.8621 97.2595 75.9134 97.2339 75.9774C97.1826 76.0928 97.1185 76.221 97.0673 76.3364C97.0544 76.362 97.0416 76.4004 97.016 76.4389C96.9775 76.5158 96.9391 76.5799 96.9006 76.6568C96.875 76.7081 96.8494 76.7594 96.8109 76.8106C96.7212 76.9644 96.6186 77.1183 96.5161 77.2593C95.6188 78.5154 94.5549 79.0794 93.5423 78.9897L44 73.6061C45.0126 73.6958 46.0765 73.1318 46.9738 71.8756C47.0764 71.7346 47.1789 71.5808 47.2686 71.427C47.3455 71.3885 47.3712 71.3373 47.3968 71.286Z" fill="url(#paint22_linear_0_2819)"/>
<path d="M35.9828 70.0555C36.0468 69.953 36.0981 69.8504 36.1494 69.7479C36.2135 69.6325 36.2648 69.5172 36.316 69.389C36.3545 69.3121 36.3929 69.2223 36.4314 69.1454C36.4698 69.0685 36.4955 68.9916 36.5211 68.9019C36.5596 68.7865 36.6108 68.684 36.6493 68.5686C36.6749 68.5045 36.6878 68.4404 36.7134 68.3635C36.7518 68.2353 36.7903 68.1072 36.8288 67.9662C36.8416 67.9149 36.8544 67.8508 36.88 67.7995C36.9313 67.6201 36.9698 67.4278 37.0082 67.2355C37.0082 67.2099 37.021 67.1971 37.021 67.1714C37.0595 67.0048 37.0851 66.8253 37.1108 66.6587C37.1236 66.6074 37.1236 66.5562 37.1364 66.4921C37.162 66.3254 37.1748 66.1588 37.2005 65.9922C37.2005 65.9537 37.2133 65.9281 37.2133 65.8896C37.2261 65.6973 37.2389 65.5051 37.2518 65.3C37.2518 65.2487 37.2518 65.1846 37.2518 65.1333C37.2518 64.9923 37.2518 64.8513 37.2518 64.7103C37.2518 64.6334 37.2518 64.5565 37.2518 64.4796C37.2518 64.3642 37.2389 64.2361 37.2389 64.1207C37.2389 64.0182 37.2261 63.9284 37.2133 63.8259C37.2005 63.7362 37.1877 63.6336 37.1877 63.5439C37.1748 63.3901 37.1492 63.2234 37.1236 63.0696C37.1108 62.9671 37.0979 62.8773 37.0723 62.7876C37.0595 62.7107 37.0467 62.6338 37.021 62.5697C36.9954 62.4543 36.9698 62.3262 36.9313 62.2108C36.9185 62.1467 36.8928 62.0698 36.88 62.0057C36.8416 61.8775 36.8031 61.7622 36.7647 61.634C36.739 61.5827 36.7262 61.5186 36.7006 61.4673C36.6365 61.2879 36.5724 61.1212 36.4955 60.9546C36.4186 60.8008 36.3417 60.647 36.2648 60.506C36.2391 60.4675 36.2263 60.4291 36.2007 60.3906C36.1494 60.3137 36.1109 60.2496 36.0597 60.1727C35.9956 60.0702 35.9187 59.9676 35.8418 59.8779C35.7905 59.8138 35.752 59.7625 35.7008 59.6984C35.6495 59.6472 35.611 59.5959 35.5598 59.5446C35.4957 59.4805 35.4316 59.4164 35.3675 59.3652C35.329 59.3267 35.2906 59.3011 35.2521 59.2626C35.1752 59.1985 35.0855 59.1344 34.9958 59.0832C34.9701 59.0703 34.9573 59.0575 34.9317 59.0447C34.8291 58.9806 34.7138 58.9165 34.6112 58.8781C34.5856 58.8652 34.5599 58.8524 34.5343 58.8396C34.4446 58.8012 34.3549 58.7755 34.2651 58.7499C34.2395 58.7371 34.2138 58.7371 34.1754 58.7242C34.06 58.6986 33.9447 58.673 33.8293 58.6602L45.3913 59.9163C45.4041 59.9163 45.4169 59.9163 45.4169 59.9163C45.5067 59.9292 45.5964 59.942 45.6861 59.9548C45.6989 59.9548 45.7246 59.9676 45.7374 59.9676C45.763 59.9804 45.7887 59.9804 45.8271 59.9932C45.8656 60.0061 45.9169 60.0189 45.9553 60.0317C46.0066 60.0445 46.045 60.0702 46.0835 60.083C46.1091 60.0958 46.1348 60.1086 46.1604 60.1214C46.1732 60.1342 46.186 60.1342 46.1988 60.1342C46.2886 60.1727 46.3783 60.224 46.4552 60.2752L46.468 60.2881C46.4937 60.3009 46.5065 60.3137 46.5321 60.3265C46.5962 60.365 46.6603 60.4162 46.7244 60.4547C46.75 60.4675 46.7629 60.4932 46.7885 60.506C46.8269 60.5316 46.8654 60.5701 46.9038 60.6085C46.9423 60.6342 46.9679 60.6598 47.0064 60.6982C47.032 60.7239 47.0577 60.7623 47.0961 60.788C47.1474 60.8392 47.1859 60.8905 47.2371 60.9418C47.2628 60.9674 47.2884 60.9931 47.314 61.0187C47.3397 61.0443 47.3525 61.0828 47.3781 61.1084C47.455 61.1982 47.5191 61.3007 47.596 61.4032C47.6217 61.4417 47.6473 61.4673 47.6729 61.5058C47.6986 61.5442 47.7114 61.5827 47.737 61.6212C47.7627 61.6596 47.7755 61.6981 47.8011 61.7365C47.878 61.8775 47.9549 62.0313 48.0318 62.1852C48.1088 62.3518 48.1729 62.5184 48.2369 62.6979C48.2626 62.7492 48.2754 62.8132 48.301 62.8645C48.3395 62.9799 48.3779 63.1081 48.4164 63.2362C48.442 63.3003 48.4549 63.3772 48.4677 63.4413C48.4933 63.5567 48.5318 63.6721 48.5574 63.8002C48.5702 63.8772 48.583 63.9412 48.6087 64.0182C48.6215 64.0694 48.6343 64.1079 48.6343 64.1592C48.6471 64.2104 48.6471 64.2617 48.6599 64.313C48.6856 64.4668 48.7112 64.6206 48.724 64.7872C48.724 64.8385 48.7369 64.8898 48.7497 64.9411C48.7497 64.9795 48.7497 65.0308 48.7625 65.0692C48.7753 65.1718 48.7753 65.2615 48.7881 65.3641C48.7881 65.4282 48.8009 65.4922 48.8009 65.5563C48.8009 65.6076 48.8009 65.6589 48.8009 65.723C48.8009 65.7999 48.8009 65.8768 48.8009 65.9537C48.8009 66.005 48.8009 66.0562 48.8009 66.1075C48.8009 66.1972 48.8009 66.287 48.7881 66.3767C48.7881 66.428 48.7881 66.4921 48.7881 66.5433C48.7881 66.569 48.7881 66.5946 48.7881 66.6202C48.7753 66.7869 48.7753 66.9407 48.7497 67.1073C48.7497 67.1202 48.7497 67.133 48.7497 67.133C48.7497 67.1714 48.7368 67.1971 48.7368 67.2355C48.724 67.3509 48.7112 67.4662 48.6984 67.5688C48.6856 67.6201 48.6856 67.6713 48.6728 67.7226C48.6599 67.7739 48.6599 67.8252 48.6471 67.8892C48.6343 67.9405 48.6343 67.979 48.6215 68.0302C48.5959 68.1584 48.5702 68.2738 48.5446 68.402C48.5446 68.4276 48.5318 68.4404 48.5318 68.4661V68.4789C48.4933 68.6327 48.4677 68.7865 48.4292 68.9403C48.4164 68.966 48.4164 68.9916 48.4036 69.0301C48.3908 69.0813 48.3779 69.1454 48.3523 69.1967C48.3267 69.2736 48.3138 69.3505 48.2882 69.4146C48.2754 69.4787 48.2498 69.53 48.2369 69.5813C48.2113 69.6453 48.1985 69.7094 48.1729 69.7863C48.16 69.8248 48.1472 69.8632 48.1344 69.9145C48.1088 69.9914 48.0831 70.0555 48.0447 70.1324C48.019 70.2093 47.9806 70.2991 47.9549 70.376C47.9421 70.4016 47.9293 70.4272 47.9165 70.4529C47.8909 70.5042 47.8652 70.5554 47.8396 70.6195C47.7883 70.7349 47.7242 70.8631 47.6729 70.9784C47.6601 71.0041 47.6473 71.0425 47.6217 71.081C47.5832 71.1579 47.5448 71.222 47.5063 71.2989C47.4807 71.3502 47.455 71.4014 47.4166 71.4527C47.3268 71.6065 47.2243 71.7603 47.1218 71.9013C46.2245 73.1575 45.1606 73.7215 44.1479 73.6318L32.5859 72.3756C33.5986 72.4653 34.6625 71.9013 35.5598 70.6452C35.6623 70.5042 35.7648 70.3503 35.8546 70.1965C35.9315 70.1581 35.9571 70.1068 35.9828 70.0555Z" fill="url(#paint23_linear_0_2819)"/>
<path d="M36.5002 60.9946C35.1927 58.1746 32.6804 57.9182 30.8858 60.4434C29.0913 62.9558 28.6811 67.2883 29.9885 70.1083C31.296 72.9283 33.8084 73.1719 35.6029 70.6595C37.4103 68.1471 37.8076 63.8146 36.5002 60.9946Z" fill="url(#paint24_linear_0_2819)"/>
<path d="M105.805 70.9141L111.842 74.093L104.19 76.208H104.164C104.177 76.2208 107.625 74.8108 105.805 70.9141Z" fill="url(#paint25_linear_0_2819)"/>
<g opacity="0.17">
<path opacity="0.038" d="M19.1328 179.766C19.1328 185.752 33.1303 190.636 50.4092 190.661C67.6881 190.687 81.6984 185.842 81.6984 179.856C81.6984 173.869 67.7009 168.986 50.422 168.96C33.1431 168.934 19.1328 173.767 19.1328 179.766Z" fill="#4A0101"/>
<path opacity="0.077" d="M19.9531 179.766C19.9531 185.598 33.5789 190.341 50.3963 190.367C67.2138 190.392 80.8523 185.675 80.8651 179.843C80.8651 174.011 67.2394 169.268 50.4219 169.242C33.6045 169.217 19.9659 173.934 19.9531 179.766Z" fill="#480202"/>
<path opacity="0.115" d="M20.7852 179.766C20.7852 185.445 34.0392 190.059 50.408 190.085C66.7768 190.111 80.0436 185.522 80.0436 179.843C80.0436 174.165 66.7896 169.55 50.4208 169.525C34.052 169.499 20.7852 174.088 20.7852 179.766Z" fill="#460303"/>
<path opacity="0.154" d="M21.6055 179.766C21.6055 185.278 34.4877 189.777 50.3951 189.79C66.3025 189.802 79.1976 185.355 79.2104 179.843C79.2232 174.331 66.3281 169.832 50.4207 169.819C34.5134 169.806 21.6183 174.241 21.6055 179.766Z" fill="#440404"/>
<path opacity="0.192" d="M22.4375 179.766C22.4375 185.124 34.9609 189.482 50.4068 189.508C65.8527 189.534 78.3889 185.201 78.3889 179.843C78.3889 174.485 65.8655 170.127 50.4196 170.101C34.9737 170.076 22.4375 174.408 22.4375 179.766Z" fill="#420505"/>
<path opacity="0.231" d="M23.2578 179.766C23.2578 184.97 35.4095 189.2 50.3939 189.213C65.3912 189.238 77.5428 185.034 77.5428 179.83C77.5428 174.626 65.3912 170.396 50.4067 170.383C35.4223 170.37 23.2706 174.562 23.2578 179.766Z" fill="#400606"/>
<path opacity="0.269" d="M24.0898 179.766C24.0898 184.803 35.8698 188.905 50.4056 188.931C64.9414 188.957 76.7341 184.88 76.7341 179.843C76.7341 174.805 64.9542 170.703 50.4184 170.678C35.8826 170.652 24.0898 174.728 24.0898 179.766Z" fill="#3E0606"/>
<path opacity="0.308" d="M24.9336 179.766C24.9336 184.65 36.3418 188.623 50.4161 188.636C64.4905 188.649 75.9115 184.714 75.9115 179.83C75.9115 174.946 64.5033 170.973 50.429 170.96C36.3418 170.947 24.9336 174.882 24.9336 179.766Z" fill="#3C0707"/>
<path opacity="0.346" d="M25.7539 179.766C25.7539 184.496 36.7904 188.342 50.4161 188.354C64.0418 188.367 75.0911 184.56 75.0911 179.83C75.0911 175.1 64.0546 171.255 50.4289 171.242C36.8032 171.229 25.7539 175.049 25.7539 179.766Z" fill="#3A0808"/>
<path opacity="0.385" d="M26.5859 179.766C26.5859 184.329 37.2507 188.047 50.4149 188.072C63.5792 188.098 74.2568 184.406 74.2568 179.83C74.2568 175.267 63.592 171.55 50.4278 171.524C37.2635 171.511 26.5859 175.203 26.5859 179.766Z" fill="#380909"/>
<path opacity="0.423" d="M27.4062 179.766C27.4062 184.176 37.6993 187.765 50.4149 187.778C63.1177 187.79 73.4235 184.24 73.4363 179.83C73.4363 175.421 63.1433 171.832 50.4277 171.819C37.7121 171.806 27.4062 175.37 27.4062 179.766Z" fill="#360A0A"/>
<path opacity="0.462" d="M28.2383 179.779C28.2383 184.034 38.1596 187.482 50.4137 187.508C62.6679 187.521 72.602 184.098 72.602 179.843C72.602 175.587 62.6807 172.139 50.4266 172.113C38.1724 172.088 28.2383 175.523 28.2383 179.779Z" fill="#340B0B"/>
<path opacity="0.5" d="M29.0586 179.779C29.0586 183.868 38.621 187.201 50.4137 187.213C62.2064 187.226 71.7688 183.932 71.7816 179.83C71.7944 175.728 62.2192 172.408 50.4265 172.396C38.6338 172.383 29.0586 175.677 29.0586 179.779Z" fill="#330C0C"/>
<path opacity="0.538" d="M29.8906 179.779C29.8906 183.714 39.0813 186.906 50.4125 186.932C61.7566 186.944 70.9473 183.765 70.9473 179.843C70.9473 175.921 61.7566 172.716 50.4254 172.691C39.0813 172.665 29.8906 175.844 29.8906 179.779Z" fill="#310D0D"/>
<path opacity="0.577" d="M30.7109 179.779C30.7109 183.548 39.5298 186.624 50.4125 186.637C61.2951 186.65 70.114 183.599 70.1269 179.83C70.1269 176.062 61.3079 172.986 50.4253 172.973C39.5427 172.96 30.7109 175.998 30.7109 179.779Z" fill="#2F0E0E"/>
<path opacity="0.615" d="M31.543 179.779C31.543 183.394 39.9901 186.342 50.4113 186.355C60.8325 186.367 69.2925 183.445 69.2925 179.83C69.2925 176.215 60.8453 173.267 50.4242 173.254C39.9901 173.242 31.543 176.164 31.543 179.779Z" fill="#2D0F0F"/>
<path opacity="0.654" d="M32.3633 179.779C32.3633 183.24 40.4387 186.047 50.4113 186.06C60.3838 186.073 68.4593 183.278 68.4593 179.83C68.4593 176.369 60.3838 173.562 50.4113 173.549C40.4516 173.524 32.3633 176.318 32.3633 179.779Z" fill="#2B1010"/>
<path opacity="0.692" d="M33.1956 179.779C33.1956 183.073 40.8993 185.765 50.4104 185.778C59.9215 185.79 67.638 183.124 67.638 179.83C67.638 176.536 59.9343 173.844 50.4232 173.831C40.9121 173.818 33.1956 176.484 33.1956 179.779Z" fill="#291111"/>
<path opacity="0.731" d="M34.0159 179.779C34.0159 182.919 41.3479 185.47 50.4103 185.483C59.46 185.496 66.8048 182.958 66.8048 179.817C66.8048 176.677 59.4728 174.126 50.4103 174.113C41.3479 174.101 34.0287 176.639 34.0159 179.779Z" fill="#271212"/>
<path opacity="0.769" d="M34.8477 179.779C34.8477 182.765 41.8079 185.188 50.4089 185.201C59.0099 185.214 65.983 182.804 65.983 179.817C65.983 176.831 59.0227 174.408 50.4217 174.395C41.8207 174.382 34.8477 176.805 34.8477 179.779Z" fill="#251212"/>
<path opacity="0.808" d="M35.668 179.779C35.668 182.599 42.2693 184.906 50.4089 184.906C58.5484 184.919 65.1498 182.637 65.1498 179.817C65.1498 176.997 58.5484 174.69 50.4089 174.69C42.2693 174.69 35.6808 176.959 35.668 179.779Z" fill="#231313"/>
<path opacity="0.846" d="M36.5 179.778C36.5 182.445 42.7296 184.611 50.4077 184.624C58.0858 184.637 64.3283 182.483 64.3283 179.817C64.3283 177.151 58.0986 174.984 50.4206 174.972C42.7296 174.972 36.5 177.112 36.5 179.778Z" fill="#211414"/>
<path opacity="0.885" d="M37.3203 179.779C37.3203 182.291 43.1782 184.329 50.4077 184.329C57.6371 184.342 63.495 182.317 63.495 179.804C63.495 177.292 57.6371 175.254 50.4077 175.254C43.191 175.254 37.3331 177.279 37.3203 179.779Z" fill="#1F1515"/>
<path opacity="0.923" d="M38.1523 179.792C38.1523 182.138 43.6385 184.047 50.4065 184.06C57.1745 184.073 62.6607 182.176 62.6735 179.83C62.6735 177.485 57.1873 175.575 50.4193 175.562C43.6385 175.536 38.1523 177.433 38.1523 179.792Z" fill="#1D1616"/>
<path opacity="0.962" d="M38.9844 179.792C38.9844 181.984 44.0988 183.765 50.4182 183.778C56.7376 183.791 61.852 182.022 61.852 179.83C61.852 177.638 56.7376 175.857 50.4182 175.844C44.0988 175.831 38.9844 177.6 38.9844 179.792Z" fill="#1B1717"/>
<path d="M39.8047 179.792C39.8047 181.817 44.5474 183.47 50.4053 183.483C56.2632 183.496 61.006 181.855 61.0188 179.817C61.0188 177.792 56.276 176.138 50.4181 176.126C44.5602 176.113 39.8047 177.753 39.8047 179.792Z" fill="#191818"/>
</g>
<path d="M48.7696 99.9213C48.7696 102.946 53.4354 105.382 59.1651 105.369C64.8948 105.356 69.5478 102.895 69.535 99.8828C69.535 96.8578 64.8692 94.4223 59.1395 94.4351C53.3969 94.4479 48.7567 96.909 48.7696 99.9213Z" fill="url(#paint26_linear_0_2819)"/>
<path d="M30.711 143.862C30.7366 156.655 43.5291 167.012 59.2827 166.974C75.0362 166.948 87.7903 156.54 87.7647 143.747C87.7519 135.954 83.0091 129.07 75.7412 124.892C71.9471 122.712 69.5757 118.713 69.5629 114.342L69.5372 99.8833C69.5372 102.908 64.8971 105.357 59.1673 105.369C53.4376 105.382 48.7846 102.947 48.7718 99.9217L48.7974 114.393C48.8102 118.764 46.4389 122.764 42.6575 124.968C35.4152 129.173 30.6981 136.069 30.711 143.862Z" fill="url(#paint27_linear_0_2819)"/>
<path d="M33.4884 143.862C33.5141 155.104 45.0761 164.231 59.2786 164.205C73.4812 164.179 85.0047 155.001 84.9791 143.76C84.9663 137.287 80.9926 131.134 74.34 127.301C69.687 124.622 66.7901 119.662 66.7773 114.368V113.124C66.1107 111.561 62.9574 110.381 59.1761 110.381C55.3947 110.394 52.2414 111.573 51.5749 113.15V114.393C51.5749 119.687 48.7036 124.661 44.0634 127.365C37.4236 131.211 33.4756 137.389 33.4884 143.862Z" fill="url(#paint28_linear_0_2819)"/>
<path d="M51.4297 113.778C51.4297 113.983 51.481 114.201 51.5707 114.393C52.2372 115.957 55.3905 117.136 59.1719 117.136C62.9532 117.124 66.1065 115.931 66.7731 114.368C66.8628 114.163 66.9012 113.957 66.9012 113.752C66.9012 113.547 66.85 113.329 66.7602 113.137C66.0937 111.573 62.9404 110.394 59.1591 110.394C55.3777 110.407 52.2244 111.586 51.5579 113.163C51.481 113.355 51.4297 113.56 51.4297 113.778Z" fill="url(#paint29_linear_0_2819)"/>
<path d="M69.0731 133.749C70.2483 133.749 71.201 132.796 71.201 131.621C71.201 130.446 70.2483 129.493 69.0731 129.493C67.898 129.493 66.9453 130.446 66.9453 131.621C66.9453 132.796 67.898 133.749 69.0731 133.749Z" fill="url(#paint30_linear_0_2819)"/>
<path d="M59.2411 147.682C60.4163 147.682 61.3689 146.73 61.3689 145.555C61.3689 144.379 60.4163 143.427 59.2411 143.427C58.0659 143.427 57.1133 144.379 57.1133 145.555C57.1133 146.73 58.0659 147.682 59.2411 147.682Z" fill="url(#paint31_linear_0_2819)"/>
<path d="M42.6616 144.939C43.4757 144.939 44.1357 144.279 44.1357 143.465C44.1357 142.651 43.4757 141.991 42.6616 141.991C41.8475 141.991 41.1875 142.651 41.1875 143.465C41.1875 144.279 41.8475 144.939 42.6616 144.939Z" fill="url(#paint32_linear_0_2819)"/>
<path d="M49.4819 157.283C50.296 157.283 50.956 156.623 50.956 155.809C50.956 154.995 50.296 154.335 49.4819 154.335C48.6678 154.335 48.0078 154.995 48.0078 155.809C48.0078 156.623 48.6678 157.283 49.4819 157.283Z" fill="url(#paint33_linear_0_2819)"/>
<path d="M56.7124 125.442C57.5265 125.442 58.1865 124.782 58.1865 123.968C58.1865 123.154 57.5265 122.494 56.7124 122.494C55.8983 122.494 55.2383 123.154 55.2383 123.968C55.2383 124.782 55.8983 125.442 56.7124 125.442Z" fill="url(#paint34_linear_0_2819)"/>
<path d="M63.3452 158.731C64.1593 158.731 64.8193 158.071 64.8193 157.257C64.8193 156.443 64.1593 155.783 63.3452 155.783C62.5311 155.783 61.8711 156.443 61.8711 157.257C61.8711 158.071 62.5311 158.731 63.3452 158.731Z" fill="url(#paint35_linear_0_2819)"/>
<path d="M74.3041 153.015C75.9607 153.015 77.3036 151.672 77.3036 150.015C77.3036 148.359 75.9607 147.016 74.3041 147.016C72.6476 147.016 71.3047 148.359 71.3047 150.015C71.3047 151.672 72.6476 153.015 74.3041 153.015Z" fill="url(#paint36_linear_0_2819)"/>
<path d="M51.4877 138.389C53.1443 138.389 54.4872 137.046 54.4872 135.39C54.4872 133.733 53.1443 132.39 51.4877 132.39C49.8312 132.39 48.4883 133.733 48.4883 135.39C48.4883 137.046 49.8312 138.389 51.4877 138.389Z" fill="url(#paint37_linear_0_2819)"/>
<path d="M67.0452 83.6299L65.0327 99.8449C65.0327 101.563 62.405 102.947 59.1492 102.96C55.8934 102.973 53.2528 101.588 53.2528 99.8705L51.125 83.6683L67.0452 83.6299Z" fill="url(#paint38_linear_0_2819)"/>
<path d="M51.1368 83.2196C51.1368 85.5397 54.713 87.4112 59.1225 87.4112C63.5319 87.3984 67.0954 85.5141 67.0954 83.194C67.0954 80.8739 63.5191 79.0024 59.1097 79.0024C54.7002 79.0024 51.1239 80.8995 51.1368 83.2196Z" fill="#90F497"/>
<path d="M23.0288 134.3C27.2126 134.3 30.6043 132.452 30.6043 130.172C30.6043 127.893 27.2126 126.045 23.0288 126.045C18.8449 126.045 15.4532 127.893 15.4532 130.172C15.4532 132.452 18.8449 134.3 23.0288 134.3Z" fill="url(#paint39_linear_0_2819)"/>
<path d="M15.4532 114.714C15.4532 116.995 18.8501 118.828 23.0288 118.828C27.2075 118.828 30.6043 116.983 30.6043 114.714C30.6043 114.56 30.5915 114.406 30.5531 114.252C30.1301 112.201 26.9255 110.599 23.0288 110.599C19.1321 110.599 15.9275 112.201 15.5045 114.252C15.4661 114.406 15.4532 114.56 15.4532 114.714Z" fill="url(#paint40_linear_0_2819)"/>
<path d="M30.5586 113.714C30.597 113.868 30.6099 114.022 30.6099 114.175V113.714H30.5586Z" fill="url(#paint41_linear_0_2819)"/>
<path d="M15.4532 113.714V114.175C15.4532 114.022 15.4661 113.868 15.5045 113.714H15.4532Z" fill="url(#paint42_linear_0_2819)"/>
<path d="M1.3148 157.732L15.4533 130.173V130.185V114.714C15.4533 116.996 18.8501 118.829 23.0288 118.829C27.2075 118.829 30.6043 116.983 30.6043 114.714V130.185V130.173L44.7428 157.732C45.0633 158.552 45.2427 159.398 45.2427 160.27C45.2427 166.948 35.2958 172.357 23.0416 172.357C10.7874 172.357 0.840532 166.948 0.840532 160.27C0.827713 159.398 0.994344 158.552 1.3148 157.732Z" fill="url(#paint43_linear_0_2819)"/>
<path d="M2.30469 160.27C2.30469 166.012 11.7901 170.87 23.0317 170.87C34.2732 170.87 43.7587 166.012 43.7587 160.27C43.7587 159.629 43.6305 158.975 43.387 158.334L29.287 130.852L29.1203 130.185V125.353C28.9793 127.109 26.3003 128.519 23.0317 128.519C19.7631 128.519 17.0841 127.122 16.9431 125.353V130.185L16.7764 130.852L2.67642 158.334C2.43287 158.975 2.30469 159.629 2.30469 160.27Z" fill="url(#paint44_linear_0_2819)"/>
<path opacity="0.38" d="M2.24609 159.706C2.24609 165.948 11.5521 171.011 23.0244 171.011C34.4966 171.011 43.8026 165.948 43.8026 159.706C43.8026 159.283 43.7514 158.847 43.6616 158.437C42.508 152.797 33.7019 148.4 23.0116 148.4C12.3212 148.4 3.52791 152.784 2.36145 158.437C2.29736 158.847 2.24609 159.283 2.24609 159.706Z" fill="url(#paint45_linear_0_2819)"/>
<path d="M16.9297 125.199C16.9297 125.25 16.9297 125.301 16.9425 125.353C17.0835 127.109 19.7625 128.519 23.0311 128.519C26.2998 128.519 28.9788 127.122 29.1198 125.353C29.1198 125.301 29.1326 125.25 29.1326 125.199C29.1326 125.071 29.1198 124.942 29.0941 124.827C28.7609 123.174 26.1716 121.879 23.044 121.879C19.9163 121.879 17.3271 123.174 16.9938 124.827C16.9425 124.955 16.9297 125.071 16.9297 125.199Z" fill="#90F497"/>
<path d="M30.7939 98.063L28.8199 113.945C28.8199 115.624 26.2435 116.983 23.0518 116.995C19.8729 117.008 17.2836 115.65 17.2836 113.97L15.207 98.1014L30.7939 98.063Z" fill="url(#paint46_linear_0_2819)"/>
<path d="M15.207 97.6529C15.207 99.9217 18.7192 101.768 23.0261 101.755C27.3459 101.742 30.8324 99.8961 30.8324 97.6273C30.8324 95.3585 27.3202 93.5126 23.0133 93.5255C18.7064 93.5255 15.207 95.3841 15.207 97.6529Z" fill="url(#paint47_linear_0_2819)"/>
<path opacity="0.38" d="M21.8334 135.889C22.9236 135.889 23.8074 135.006 23.8074 133.915C23.8074 132.825 22.9236 131.941 21.8334 131.941C20.7432 131.941 19.8594 132.825 19.8594 133.915C19.8594 135.006 20.7432 135.889 21.8334 135.889Z" fill="url(#paint48_linear_0_2819)"/>
<path opacity="0.38" d="M33.0834 164.077C34.1736 164.077 35.0574 163.193 35.0574 162.103C35.0574 161.013 34.1736 160.129 33.0834 160.129C31.9932 160.129 31.1094 161.013 31.1094 162.103C31.1094 163.193 31.9932 164.077 33.0834 164.077Z" fill="url(#paint49_linear_0_2819)"/>
<path opacity="0.38" d="M14.9545 147.49C16.0447 147.49 16.9285 146.606 16.9285 145.516C16.9285 144.426 16.0447 143.542 14.9545 143.542C13.8643 143.542 12.9805 144.426 12.9805 145.516C12.9805 146.606 13.8643 147.49 14.9545 147.49Z" fill="url(#paint50_linear_0_2819)"/>
<path opacity="0.38" d="M21.0599 160.513C22.1501 160.513 23.0339 159.629 23.0339 158.539C23.0339 157.449 22.1501 156.565 21.0599 156.565C19.9697 156.565 19.0859 157.449 19.0859 158.539C19.0859 159.629 19.9697 160.513 21.0599 160.513Z" fill="url(#paint51_linear_0_2819)"/>
<path opacity="0.38" d="M29.1342 150.374C30.2244 150.374 31.1082 149.49 31.1082 148.4C31.1082 147.31 30.2244 146.426 29.1342 146.426C28.0439 146.426 27.1602 147.31 27.1602 148.4C27.1602 149.49 28.0439 150.374 29.1342 150.374Z" fill="url(#paint52_linear_0_2819)"/>
<path opacity="0.38" d="M29.9321 142.644C30.5763 142.644 31.0985 142.122 31.0985 141.478C31.0985 140.834 30.5763 140.312 29.9321 140.312C29.2879 140.312 28.7656 140.834 28.7656 141.478C28.7656 142.122 29.2879 142.644 29.9321 142.644Z" fill="url(#paint53_linear_0_2819)"/>
<path opacity="0.38" d="M11.8149 156.322C12.4591 156.322 12.9813 155.799 12.9813 155.155C12.9813 154.511 12.4591 153.989 11.8149 153.989C11.1707 153.989 10.6484 154.511 10.6484 155.155C10.6484 155.799 11.1707 156.322 11.8149 156.322Z" fill="url(#paint54_linear_0_2819)"/>
<path opacity="0.38" d="M35.4282 155.758C36.0724 155.758 36.5946 155.235 36.5946 154.591C36.5946 153.947 36.0724 153.425 35.4282 153.425C34.784 153.425 34.2617 153.947 34.2617 154.591C34.2617 155.235 34.784 155.758 35.4282 155.758Z" fill="url(#paint55_linear_0_2819)"/>
<path d="M87.7207 1.74711L82.6832 9.01501C82.2474 8.95092 81.8116 8.88683 81.3629 8.8612C79.4402 8.70738 77.5303 8.8612 75.6717 9.27138C74.4539 9.52774 73.2747 9.91229 72.121 10.4122C68.4422 11.9632 65.1736 14.5525 62.7637 17.8211C62.0075 18.8337 61.3281 19.9233 60.7641 21.0769C59.8797 22.833 59.2259 24.7173 58.8542 26.6913C58.4825 28.6653 58.4056 30.6008 58.6107 32.421C58.726 33.6259 58.9696 34.7796 59.3285 35.8947C59.6617 36.9586 60.1104 37.9969 60.6487 38.9583L54.0346 44.1881C53.0732 42.5987 52.3041 40.8938 51.7401 39.0993C51.2402 37.5355 50.8813 35.8947 50.7275 34.2027C50.4455 31.6007 50.548 28.8832 51.0736 26.1017C51.5991 23.3073 52.5348 20.6411 53.7782 18.1672C54.5729 16.5521 55.5343 15.0139 56.611 13.5655C60.0207 8.9381 64.6352 5.28492 69.8394 3.09302C71.4673 2.40083 73.1337 1.84965 74.8513 1.49074C77.4662 0.901106 80.1837 0.683196 82.9011 0.901105C84.5675 1.00365 86.1697 1.31129 87.7207 1.74711Z" fill="url(#paint56_linear_0_2819)"/>
<path d="M96.0236 31.7158C95.716 32.7413 95.3314 33.7411 94.8828 34.7025L101.1 39.2016C101.292 38.8556 101.471 38.5095 101.638 38.1634C102.176 37.0866 102.651 35.9715 103.061 34.8306L96.0236 31.7158Z" fill="url(#paint57_linear_0_2819)"/>
<path d="M93.6221 37.0483C93.3144 37.5354 92.994 38.0225 92.6351 38.4968C92.3659 38.8685 92.0711 39.2274 91.7891 39.5735L97.1214 44.8546C97.7111 44.1753 98.2879 43.4959 98.8134 42.7653C99.1082 42.3679 99.3902 41.9705 99.6594 41.5603L93.6221 37.0483Z" fill="url(#paint58_linear_0_2819)"/>
<path d="M96.8585 27.1655C96.8201 27.8064 96.7432 28.4474 96.6406 29.1011L103.909 32.1903C104.075 31.5494 104.229 30.8956 104.357 30.2419C104.562 29.1652 104.678 28.1141 104.767 27.063L96.8585 27.1655Z" fill="url(#paint59_linear_0_2819)"/>
<path d="M93.402 15.2574L100.324 10.489C99.3624 9.1559 98.2601 7.93818 97.0423 6.84863L91.4023 13.0911C92.133 13.7576 92.7995 14.4755 93.402 15.2574Z" fill="url(#paint60_linear_0_2819)"/>
<path d="M95.6329 19.167L103.747 17.4238C103.721 17.3597 103.708 17.2828 103.683 17.2187C103.196 15.6677 102.542 14.1808 101.773 12.7964L94.8125 17.4366C95.1201 18.0134 95.3893 18.5774 95.6329 19.167Z" fill="url(#paint61_linear_0_2819)"/>
<path d="M90.4483 2.66992L85.4492 9.66865C85.8979 9.80965 86.3337 9.97628 86.7567 10.1557C87.6539 10.5275 88.4999 10.9889 89.3075 11.5145L94.8962 5.14383C94.8449 5.10538 94.8065 5.06692 94.7552 5.04129C93.4478 4.11838 92.0121 3.34929 90.4996 2.70838C90.4739 2.68274 90.4611 2.68274 90.4483 2.66992Z" fill="url(#paint62_linear_0_2819)"/>
<path d="M96.7908 23.8839C96.8164 24.089 96.8164 24.2941 96.8293 24.4864L104.828 24.2685C104.815 23.5378 104.764 22.82 104.687 22.115C104.623 21.4228 104.507 20.7306 104.379 20.0513L96.4062 21.6407C96.5857 22.3842 96.7139 23.1276 96.7908 23.8839Z" fill="url(#paint63_linear_0_2819)"/>
<path d="M95.2249 46.8413L89.9823 41.4961C89.3414 42.1114 88.662 42.6754 87.957 43.2009L92.3793 49.2767C93.3791 48.5205 94.3148 47.7129 95.2249 46.8413Z" fill="url(#paint64_linear_0_2819)"/>
<path d="M90.1027 50.8535C88.6543 51.7636 87.1545 52.5712 85.5779 53.2249C83.9628 53.9171 82.2836 54.4426 80.566 54.8272C77.9511 55.4168 75.2208 55.6347 72.5033 55.4168C69.7731 55.1989 67.2351 54.5708 64.9022 53.5966C63.3768 52.9685 61.954 52.1866 60.6337 51.2637C57.9419 49.3923 55.6859 46.9696 54.0195 44.1624L60.6337 38.9326C61.8514 41.1502 63.5434 43.0473 65.6328 44.4957C66.5685 45.1623 67.5555 45.7134 68.6451 46.1493C70.2986 46.8414 72.0932 47.2901 74.0287 47.4311C75.9514 47.5849 77.8742 47.4311 79.7328 47.0209C80.9505 46.7517 82.1298 46.38 83.2706 45.8801C84.1166 45.5212 84.937 45.111 85.7317 44.6623L90.1027 50.8535Z" fill="url(#paint65_linear_0_2819)"/>
<path d="M71.2461 27.063L87.7175 1.74707L79.4754 29.6266L71.2461 27.063Z" fill="url(#paint66_linear_0_2819)"/>
<path d="M152.38 180.381C152.636 160.449 138.857 136.082 121.578 125.917C111.31 119.879 102.107 120.238 96.3002 125.712C89.7629 128.532 85.5586 135.774 85.4176 146.516C85.1612 166.435 98.9536 190.828 116.22 200.98C126.5 207.017 135.69 206.659 141.497 201.185C148.047 198.365 152.252 191.11 152.38 180.381ZM120.719 190.572C107.042 182.535 96.1079 163.205 96.313 147.426C96.3899 141.299 98.146 136.607 101.056 133.621C105.414 131.993 110.99 132.736 117.04 136.3C130.73 144.349 141.651 163.654 141.446 179.446C141.369 185.573 139.613 190.264 136.703 193.251C132.358 194.879 126.782 194.135 120.719 190.572Z" fill="url(#paint67_linear_0_2819)"/>
<path opacity="0.58" d="M115.459 194.763C101.782 186.726 90.8485 167.396 91.0536 151.617C91.2587 135.825 102.526 129.557 116.203 137.594C129.893 145.644 140.814 164.948 140.609 180.74C140.404 196.519 129.149 202.813 115.459 194.763Z" fill="white"/>
<path d="M112.749 131.711C95.4831 121.559 81.2677 129.48 81.0113 149.413C80.755 169.332 94.5473 193.725 111.813 203.877C129.092 214.029 143.295 206.095 143.551 186.175C143.808 166.243 130.028 141.875 112.749 131.711ZM111.89 196.366C98.2133 188.329 87.2794 168.999 87.4845 153.22C87.6896 137.428 98.9568 131.159 112.634 139.196C126.324 147.246 137.245 166.55 137.04 182.342C136.835 198.122 125.58 204.415 111.89 196.366Z" fill="url(#paint68_linear_0_2819)"/>
<path d="M100.191 150.72L106.075 174.87L130.545 171.204L128.75 164.897L110.356 166.807L105.78 149.836L100.191 150.72Z" fill="url(#paint69_linear_0_2819)"/>
<path d="M159.11 212.683C159.135 212.594 159.174 212.504 159.199 212.414C159.238 212.312 159.276 212.222 159.315 212.119C159.34 212.055 159.366 211.991 159.404 211.927C159.43 211.863 159.468 211.799 159.494 211.748C159.533 211.658 159.584 211.581 159.622 211.491C159.648 211.44 159.674 211.389 159.699 211.35C159.75 211.261 159.815 211.158 159.866 211.068C159.891 211.03 159.917 210.991 159.943 210.953C160.02 210.825 160.109 210.697 160.199 210.581C160.212 210.568 160.225 210.556 160.238 210.543C160.314 210.427 160.404 210.325 160.494 210.209C160.52 210.171 160.545 210.145 160.571 210.107C160.661 210.004 160.737 209.902 160.827 209.812C160.84 209.799 160.866 209.774 160.878 209.761C160.981 209.645 161.096 209.53 161.199 209.428C161.237 209.402 161.263 209.363 161.301 209.338C161.378 209.261 161.468 209.184 161.545 209.107C161.596 209.069 161.635 209.03 161.686 208.992C161.763 208.928 161.827 208.876 161.904 208.812C161.968 208.761 162.032 208.71 162.083 208.671C162.147 208.62 162.199 208.582 162.263 208.543C162.365 208.466 162.468 208.402 162.57 208.325C162.635 208.287 162.699 208.235 162.763 208.197C162.814 208.171 162.865 208.133 162.917 208.107C163.006 208.056 163.083 208.018 163.173 207.966C163.224 207.941 163.275 207.915 163.327 207.889C163.416 207.838 163.506 207.8 163.609 207.761C163.647 207.748 163.698 207.723 163.737 207.697C163.878 207.646 164.006 207.595 164.147 207.543C164.275 207.505 164.403 207.466 164.532 207.441C164.57 207.428 164.596 207.428 164.634 207.415C164.698 207.402 164.775 207.389 164.839 207.377C164.942 207.364 165.032 207.351 165.121 207.338C165.185 207.338 165.237 207.325 165.301 207.325C165.352 207.325 165.403 207.325 165.467 207.325C165.531 207.325 165.608 207.325 165.672 207.338C165.711 207.338 165.749 207.351 165.788 207.351C165.878 207.364 165.954 207.377 166.031 207.402C166.044 207.402 166.07 207.415 166.083 207.415C166.172 207.441 166.262 207.479 166.352 207.518C166.377 207.53 166.39 207.543 166.416 207.543C166.48 207.569 166.544 207.607 166.608 207.646C166.634 207.659 166.647 207.671 166.672 207.684C166.749 207.736 166.826 207.787 166.89 207.851L149.291 191.879L149.278 191.867C149.227 191.815 149.163 191.777 149.111 191.738C149.099 191.726 149.086 191.726 149.073 191.713C149.047 191.7 149.034 191.687 149.009 191.674C148.983 191.662 148.945 191.636 148.919 191.623C148.881 191.61 148.855 191.585 148.817 191.572C148.791 191.559 148.778 191.546 148.752 191.546C148.74 191.546 148.727 191.533 148.714 191.533C148.637 191.508 148.573 191.482 148.496 191.456H148.483C148.47 191.456 148.445 191.444 148.432 191.444C148.368 191.431 148.317 191.418 148.253 191.405C148.227 191.405 148.214 191.405 148.188 191.392C148.15 191.392 148.112 191.38 148.073 191.38C148.035 191.38 147.996 191.367 147.971 191.367C147.945 191.367 147.906 191.367 147.868 191.367C147.817 191.367 147.765 191.367 147.701 191.367C147.676 191.367 147.65 191.367 147.612 191.367C147.586 191.367 147.548 191.38 147.522 191.38C147.432 191.392 147.33 191.392 147.24 191.418C147.201 191.418 147.176 191.418 147.137 191.431C147.099 191.431 147.073 191.444 147.035 191.456C146.996 191.469 146.971 191.469 146.932 191.482C146.804 191.508 146.676 191.546 146.548 191.585C146.407 191.623 146.279 191.674 146.138 191.738C146.099 191.751 146.048 191.777 146.009 191.803C145.92 191.841 145.83 191.879 145.727 191.931C145.676 191.956 145.625 191.982 145.574 192.008C145.484 192.046 145.407 192.097 145.317 192.149C145.266 192.174 145.215 192.213 145.163 192.238C145.138 192.264 145.099 192.277 145.061 192.29C145.022 192.315 144.997 192.341 144.958 192.354C144.856 192.418 144.753 192.495 144.651 192.572C144.612 192.597 144.587 192.61 144.548 192.636C144.522 192.661 144.497 192.674 144.471 192.7C144.407 192.751 144.343 192.802 144.292 192.841C144.253 192.879 144.215 192.905 144.164 192.943C144.125 192.969 144.099 192.995 144.074 193.033C144.023 193.072 143.984 193.11 143.933 193.148C143.907 193.174 143.869 193.2 143.843 193.225C143.792 193.277 143.741 193.328 143.689 193.366C143.651 193.392 143.625 193.43 143.587 193.456C143.574 193.469 143.561 193.482 143.548 193.495C143.459 193.584 143.369 193.674 143.279 193.777L143.266 193.789C143.253 193.815 143.228 193.828 143.215 193.853C143.151 193.918 143.1 193.982 143.036 194.059C143.01 194.084 142.984 194.123 142.959 194.161C142.933 194.2 142.907 194.225 142.882 194.264C142.856 194.289 142.83 194.328 142.805 194.353C142.741 194.43 142.689 194.507 142.625 194.597C142.613 194.61 142.6 194.623 142.587 194.635C142.587 194.635 142.587 194.648 142.574 194.648C142.497 194.751 142.433 194.853 142.356 194.956C142.343 194.981 142.331 194.994 142.318 195.02C142.292 195.058 142.266 195.097 142.241 195.135C142.202 195.187 142.177 195.238 142.138 195.289C142.113 195.328 142.087 195.366 142.074 195.417C142.049 195.469 142.023 195.52 141.997 195.558C141.984 195.584 141.959 195.622 141.946 195.648C141.92 195.699 141.895 195.763 141.869 195.815C141.843 195.879 141.805 195.93 141.779 195.994C141.767 196.02 141.754 196.033 141.754 196.058C141.728 196.097 141.715 196.148 141.702 196.186C141.664 196.289 141.626 196.379 141.587 196.481C141.574 196.507 141.561 196.532 141.549 196.558C141.523 196.622 141.51 196.686 141.485 196.738C141.472 196.776 141.459 196.827 141.446 196.866C141.408 197.007 141.369 197.148 141.344 197.276C141.087 198.468 141.331 199.404 141.92 199.942L159.507 215.926C158.917 215.388 158.674 214.452 158.93 213.26C158.956 213.119 158.994 212.978 159.033 212.85C159.084 212.773 159.097 212.722 159.11 212.683Z" fill="url(#paint70_linear_0_2819)"/>
<path d="M167.475 210.517C166.962 212.914 164.642 215.465 162.297 216.208C159.951 216.951 158.464 215.618 158.964 213.221C159.477 210.824 161.797 208.274 164.142 207.53C166.488 206.787 167.988 208.12 167.475 210.517Z" fill="url(#paint71_linear_0_2819)"/>
<path d="M188.546 247.421C188.61 247.228 188.687 247.049 188.764 246.857C188.853 246.651 188.943 246.446 189.046 246.241C189.11 246.1 189.174 245.959 189.251 245.831C189.315 245.703 189.392 245.575 189.456 245.447C189.558 245.267 189.648 245.088 189.764 244.908C189.828 244.806 189.892 244.703 189.956 244.601C190.084 244.408 190.212 244.203 190.34 244.011C190.392 243.934 190.443 243.844 190.507 243.767C190.699 243.498 190.892 243.242 191.097 242.973C191.122 242.947 191.148 242.909 191.174 242.883C191.353 242.652 191.545 242.422 191.75 242.204C191.814 242.139 191.879 242.063 191.93 241.998C192.122 241.793 192.314 241.575 192.519 241.383C192.558 241.345 192.596 241.306 192.635 241.268C192.866 241.037 193.109 240.806 193.353 240.576C193.43 240.512 193.494 240.447 193.571 240.383C193.75 240.23 193.929 240.063 194.122 239.909C194.224 239.832 194.327 239.742 194.429 239.666C194.596 239.537 194.75 239.422 194.916 239.294C195.057 239.191 195.186 239.089 195.327 238.999C195.455 238.909 195.596 238.82 195.724 238.73C195.955 238.576 196.185 238.435 196.416 238.294C196.557 238.204 196.698 238.127 196.852 238.038C196.967 237.974 197.083 237.909 197.198 237.858C197.39 237.756 197.57 237.666 197.762 237.576C197.877 237.525 197.98 237.474 198.095 237.422C198.3 237.333 198.506 237.256 198.711 237.179C198.813 237.14 198.903 237.102 199.005 237.063C199.3 236.961 199.608 236.858 199.903 236.781C200.185 236.705 200.467 236.64 200.749 236.589C200.826 236.576 200.89 236.564 200.967 236.551C201.12 236.525 201.261 236.512 201.415 236.5C201.62 236.474 201.838 236.461 202.031 236.448C202.159 236.448 202.287 236.435 202.415 236.448C202.53 236.448 202.646 236.461 202.761 236.461C202.915 236.474 203.056 236.487 203.21 236.512C203.3 236.525 203.376 236.538 203.453 236.551C203.633 236.589 203.812 236.628 203.979 236.679C204.017 236.692 204.056 236.705 204.094 236.717C204.299 236.781 204.492 236.858 204.671 236.948C204.722 236.974 204.761 236.999 204.799 237.012C204.94 237.089 205.081 237.166 205.209 237.256C205.248 237.281 205.299 237.307 205.338 237.345C205.504 237.461 205.658 237.589 205.799 237.743L171.933 204.928C171.921 204.915 171.908 204.903 171.895 204.89C171.78 204.787 171.664 204.685 171.536 204.582C171.51 204.569 171.485 204.544 171.459 204.531C171.421 204.505 171.382 204.48 171.331 204.441C171.267 204.403 171.203 204.351 171.139 204.313C171.075 204.275 170.998 204.236 170.921 204.198C170.882 204.172 170.831 204.146 170.793 204.121C170.767 204.108 170.741 204.095 170.716 204.082C170.562 204.018 170.408 203.954 170.241 203.89C170.229 203.89 170.216 203.89 170.216 203.877C170.177 203.864 170.139 203.852 170.1 203.839C169.972 203.8 169.844 203.762 169.716 203.736C169.677 203.723 169.626 203.723 169.575 203.711C169.498 203.698 169.408 203.685 169.331 203.672C169.254 203.659 169.178 203.646 169.101 203.634C169.037 203.621 168.96 203.634 168.883 203.621C168.767 203.608 168.652 203.608 168.537 203.608C168.473 203.608 168.408 203.595 168.344 203.595C168.28 203.595 168.216 203.608 168.152 203.608C167.947 203.621 167.742 203.634 167.537 203.659C167.46 203.672 167.396 203.659 167.319 203.672C167.242 203.685 167.165 203.698 167.101 203.711C167.024 203.723 166.96 203.736 166.883 203.749C166.614 203.8 166.332 203.864 166.037 203.941C165.742 204.018 165.435 204.121 165.14 204.223C165.037 204.262 164.948 204.3 164.845 204.339C164.64 204.416 164.435 204.492 164.23 204.582C164.114 204.633 164.012 204.685 163.896 204.736C163.704 204.826 163.525 204.915 163.332 205.018C163.217 205.082 163.102 205.133 162.986 205.197C162.909 205.236 162.845 205.274 162.768 205.313C162.692 205.351 162.627 205.403 162.551 205.454C162.32 205.595 162.089 205.736 161.858 205.89C161.781 205.941 161.717 205.979 161.64 206.031C161.576 206.069 161.525 206.12 161.461 206.159C161.32 206.261 161.179 206.351 161.051 206.454C160.961 206.518 160.871 206.582 160.782 206.646C160.705 206.697 160.641 206.761 160.564 206.813C160.461 206.889 160.359 206.979 160.256 207.056C160.192 207.107 160.115 207.171 160.051 207.223C159.936 207.325 159.82 207.428 159.705 207.518C159.628 207.582 159.564 207.646 159.487 207.71C159.461 207.735 159.423 207.761 159.397 207.787C159.192 207.979 159 208.158 158.808 208.364C158.795 208.376 158.782 208.389 158.769 208.402C158.731 208.44 158.692 208.479 158.654 208.517C158.513 208.658 158.385 208.799 158.256 208.94C158.192 209.004 158.141 209.081 158.077 209.145C158.013 209.21 157.949 209.286 157.898 209.351C157.846 209.415 157.782 209.466 157.731 209.53C157.59 209.697 157.449 209.863 157.321 210.03C157.295 210.056 157.269 210.094 157.244 210.12C157.244 210.132 157.231 210.132 157.231 210.145C157.064 210.363 156.898 210.568 156.744 210.786C156.718 210.825 156.693 210.863 156.654 210.914C156.603 210.991 156.539 211.068 156.488 211.158C156.411 211.273 156.334 211.376 156.27 211.478C156.218 211.568 156.167 211.658 156.103 211.735C156.039 211.837 155.975 211.94 155.911 212.042C155.872 212.106 155.834 212.171 155.795 212.235C155.731 212.35 155.667 212.465 155.603 212.581C155.526 212.709 155.462 212.837 155.398 212.965C155.372 213.004 155.347 213.055 155.321 213.093C155.27 213.183 155.231 213.286 155.193 213.375C155.09 213.581 155.001 213.786 154.911 213.991C154.885 214.042 154.86 214.106 154.834 214.157C154.783 214.286 154.731 214.414 154.693 214.555C154.655 214.644 154.616 214.734 154.59 214.837C154.488 215.132 154.398 215.426 154.321 215.721C153.668 218.272 154.091 220.297 155.321 221.528L189.187 254.342C187.956 253.112 187.533 251.087 188.187 248.536C188.264 248.241 188.354 247.946 188.456 247.651C188.469 247.6 188.507 247.51 188.546 247.421Z" fill="url(#paint72_linear_0_2819)"/>
<path d="M199.88 236.781C205.007 235.397 208.096 238.422 206.776 243.549C205.443 248.677 200.213 253.958 195.073 255.342C189.933 256.726 186.857 253.701 188.177 248.574C189.497 243.447 194.74 238.178 199.88 236.781Z" fill="url(#paint73_linear_0_2819)"/>
<defs>
<linearGradient id="paint0_linear_0_2819" x1="148.874" y1="97.4193" x2="134.455" y2="39.4238" gradientUnits="userSpaceOnUse">
<stop stop-color="#404040"/>
<stop offset="1" stop-color="#727272"/>
</linearGradient>
<linearGradient id="paint1_linear_0_2819" x1="148.654" y1="97.4684" x2="134.235" y2="39.473" gradientUnits="userSpaceOnUse">
<stop stop-color="#303030"/>
<stop offset="0.26" stop-color="#676767"/>
<stop offset="0.723" stop-color="white"/>
<stop offset="1" stop-color="#727272"/>
</linearGradient>
<linearGradient id="paint2_linear_0_2819" x1="79.3064" y1="84.7163" x2="202.59" y2="84.7163" gradientUnits="userSpaceOnUse">
<stop stop-color="#404040"/>
<stop offset="1" stop-color="#727272"/>
</linearGradient>
<linearGradient id="paint3_linear_0_2819" x1="122.101" y1="135.18" x2="164.482" y2="21.7229" gradientUnits="userSpaceOnUse">
<stop stop-color="#E4E4E4"/>
<stop offset="1" stop-color="white"/>
</linearGradient>
<linearGradient id="paint4_linear_0_2819" x1="193.588" y1="22.6251" x2="120.854" y2="108.497" gradientUnits="userSpaceOnUse">
<stop stop-color="white"/>
<stop offset="1" stop-color="#727272"/>
</linearGradient>
<linearGradient id="paint5_linear_0_2819" x1="159.875" y1="29.3295" x2="166.178" y2="12.4558" gradientUnits="userSpaceOnUse">
<stop stop-color="#FF9D00"/>
<stop offset="1" stop-color="#FFE84C"/>
</linearGradient>
<linearGradient id="paint6_linear_0_2819" x1="121.02" y1="43.4334" x2="128.979" y2="43.4334" gradientUnits="userSpaceOnUse">
<stop stop-color="#B92222"/>
<stop offset="0.247" stop-color="#DD2F2F"/>
<stop offset="0.855" stop-color="#FF6757"/>
</linearGradient>
<linearGradient id="paint7_linear_0_2819" x1="115.311" y1="58.3922" x2="123.27" y2="58.3922" gradientUnits="userSpaceOnUse">
<stop stop-color="#B92222"/>
<stop offset="0.247" stop-color="#DD2F2F"/>
<stop offset="0.855" stop-color="#FF6757"/>
</linearGradient>
<linearGradient id="paint8_linear_0_2819" x1="109.603" y1="73.3509" x2="117.562" y2="73.3509" gradientUnits="userSpaceOnUse">
<stop stop-color="#B92222"/>
<stop offset="0.247" stop-color="#DD2F2F"/>
<stop offset="0.855" stop-color="#FF6757"/>
</linearGradient>
<linearGradient id="paint9_linear_0_2819" x1="156.394" y1="142.673" x2="156.394" y2="157.851" gradientUnits="userSpaceOnUse">
<stop stop-color="#82FB7C"/>
<stop offset="1" stop-color="#0BA2B3"/>
</linearGradient>
<linearGradient id="paint10_linear_0_2819" x1="166.33" y1="159.316" x2="166.33" y2="143.087" gradientUnits="userSpaceOnUse">
<stop stop-color="#1D725C"/>
<stop offset="1" stop-color="#0BA2B3"/>
</linearGradient>
<linearGradient id="paint11_linear_0_2819" x1="174.569" y1="134.989" x2="174.569" y2="162.499" gradientUnits="userSpaceOnUse">
<stop stop-color="#82FB7C"/>
<stop offset="1" stop-color="#0BA2B3"/>
</linearGradient>
<linearGradient id="paint12_linear_0_2819" x1="184.505" y1="165.237" x2="184.505" y2="136.119" gradientUnits="userSpaceOnUse">
<stop stop-color="#1D725C"/>
<stop offset="1" stop-color="#0BA2B3"/>
</linearGradient>
<linearGradient id="paint13_linear_0_2819" x1="192.745" y1="145.333" x2="192.745" y2="172.229" gradientUnits="userSpaceOnUse">
<stop stop-color="#82FB7C"/>
<stop offset="1" stop-color="#0BA2B3"/>
</linearGradient>
<linearGradient id="paint14_linear_0_2819" x1="202.681" y1="174.904" x2="202.681" y2="146.426" gradientUnits="userSpaceOnUse">
<stop stop-color="#1D725C"/>
<stop offset="1" stop-color="#0BA2B3"/>
</linearGradient>
<linearGradient id="paint15_linear_0_2819" x1="210.919" y1="141.52" x2="210.919" y2="177.969" gradientUnits="userSpaceOnUse">
<stop stop-color="#82FB7C"/>
<stop offset="1" stop-color="#0BA2B3"/>
</linearGradient>
<linearGradient id="paint16_linear_0_2819" x1="220.855" y1="181.628" x2="220.855" y2="143.166" gradientUnits="userSpaceOnUse">
<stop stop-color="#1D725C"/>
<stop offset="1" stop-color="#0BA2B3"/>
</linearGradient>
<linearGradient id="paint17_linear_0_2819" x1="182.619" y1="95.7162" x2="225.298" y2="95.7162" gradientUnits="userSpaceOnUse">
<stop stop-color="#1D725C"/>
<stop offset="1" stop-color="#0BA2B3"/>
</linearGradient>
<linearGradient id="paint18_linear_0_2819" x1="220.406" y1="116.428" x2="217.63" y2="97.6891" gradientUnits="userSpaceOnUse">
<stop stop-color="#FF9D00"/>
<stop offset="1" stop-color="#D39233"/>
</linearGradient>
<linearGradient id="paint19_linear_0_2819" x1="181.477" y1="99.6716" x2="218.433" y2="99.6716" gradientUnits="userSpaceOnUse">
<stop stop-color="#82FB7C"/>
<stop offset="1" stop-color="#0BA2B3"/>
</linearGradient>
<linearGradient id="paint20_linear_0_2819" x1="214.08" y1="97.2831" x2="211.304" y2="123.657" gradientUnits="userSpaceOnUse">
<stop stop-color="#FF9D00"/>
<stop offset="1" stop-color="#FFE84C"/>
</linearGradient>
<linearGradient id="paint21_linear_0_2819" x1="103.027" y1="78.2273" x2="104.201" y2="68.6759" gradientUnits="userSpaceOnUse">
<stop stop-color="#FFD2A1"/>
<stop offset="1" stop-color="#D8952A"/>
</linearGradient>
<linearGradient id="paint22_linear_0_2819" x1="71.4672" y1="61.8875" x2="71.0088" y2="76.5511" gradientUnits="userSpaceOnUse">
<stop stop-color="#FFE94D"/>
<stop offset="1" stop-color="#FF9D00"/>
</linearGradient>
<linearGradient id="paint23_linear_0_2819" x1="41.0175" y1="59.8707" x2="40.6361" y2="72.0805" gradientUnits="userSpaceOnUse">
<stop stop-color="#82FB7C"/>
<stop offset="1" stop-color="#0BA2B3"/>
</linearGradient>
<linearGradient id="paint24_linear_0_2819" x1="37.2369" y1="68.3671" x2="29.2712" y2="62.7104" gradientUnits="userSpaceOnUse">
<stop stop-color="#82FB7C"/>
<stop offset="1" stop-color="#0BA2B3"/>
</linearGradient>
<linearGradient id="paint25_linear_0_2819" x1="108.064" y1="76.0787" x2="108.549" y2="72.1288" gradientUnits="userSpaceOnUse">
<stop stop-color="#303030"/>
<stop offset="1" stop-color="#727272"/>
</linearGradient>
<linearGradient id="paint26_linear_0_2819" x1="69.5269" y1="99.8847" x2="48.7636" y2="99.9262" gradientUnits="userSpaceOnUse">
<stop stop-color="#C8C8C8"/>
<stop offset="1" stop-color="#EDEDED"/>
</linearGradient>
<linearGradient id="paint27_linear_0_2819" x1="87.7412" y1="133.385" x2="30.6895" y2="133.499" gradientUnits="userSpaceOnUse">
<stop stop-color="#EBEBEB"/>
<stop offset="1" stop-color="#FBFBFB"/>
</linearGradient>
<linearGradient id="paint28_linear_0_2819" x1="84.9645" y1="137.241" x2="33.4734" y2="137.344" gradientUnits="userSpaceOnUse">
<stop stop-color="#3ABAF9"/>
<stop offset="1" stop-color="#267EBD"/>
</linearGradient>
<linearGradient id="paint29_linear_0_2819" x1="66.902" y1="113.746" x2="51.4324" y2="113.777" gradientUnits="userSpaceOnUse">
<stop stop-color="#3ABAF9"/>
<stop offset="1" stop-color="#46C6F9"/>
</linearGradient>
<linearGradient id="paint30_linear_0_2819" x1="71.1943" y1="131.613" x2="66.9436" y2="131.622" gradientUnits="userSpaceOnUse">
<stop stop-color="#1A6191"/>
<stop offset="1" stop-color="#267EBD"/>
</linearGradient>
<linearGradient id="paint31_linear_0_2819" x1="61.3617" y1="145.549" x2="57.1112" y2="145.558" gradientUnits="userSpaceOnUse">
<stop stop-color="#1A6191"/>
<stop offset="1" stop-color="#267EBD"/>
</linearGradient>
<linearGradient id="paint32_linear_0_2819" x1="44.1306" y1="143.459" x2="41.1802" y2="143.465" gradientUnits="userSpaceOnUse">
<stop stop-color="#1A6191"/>
<stop offset="1" stop-color="#267EBD"/>
</linearGradient>
<linearGradient id="paint33_linear_0_2819" x1="50.9627" y1="155.811" x2="48.0121" y2="155.817" gradientUnits="userSpaceOnUse">
<stop stop-color="#1A6191"/>
<stop offset="1" stop-color="#267EBD"/>
</linearGradient>
<linearGradient id="paint34_linear_0_2819" x1="58.1848" y1="123.97" x2="55.2342" y2="123.976" gradientUnits="userSpaceOnUse">
<stop stop-color="#1A6191"/>
<stop offset="1" stop-color="#267EBD"/>
</linearGradient>
<linearGradient id="paint35_linear_0_2819" x1="64.8177" y1="157.258" x2="61.8672" y2="157.264" gradientUnits="userSpaceOnUse">
<stop stop-color="#1A6191"/>
<stop offset="1" stop-color="#267EBD"/>
</linearGradient>
<linearGradient id="paint36_linear_0_2819" x1="77.3053" y1="150.006" x2="71.3137" y2="150.018" gradientUnits="userSpaceOnUse">
<stop stop-color="#1A6191"/>
<stop offset="1" stop-color="#267EBD"/>
</linearGradient>
<linearGradient id="paint37_linear_0_2819" x1="54.4784" y1="135.385" x2="48.4868" y2="135.397" gradientUnits="userSpaceOnUse">
<stop stop-color="#1A6191"/>
<stop offset="1" stop-color="#267EBD"/>
</linearGradient>
<linearGradient id="paint38_linear_0_2819" x1="67.0582" y1="93.289" x2="51.1523" y2="93.3208" gradientUnits="userSpaceOnUse">
<stop stop-color="#82FB7C"/>
<stop offset="1" stop-color="#0BA2B3"/>
</linearGradient>
<linearGradient id="paint39_linear_0_2819" x1="15.4539" y1="130.171" x2="30.6036" y2="130.171" gradientUnits="userSpaceOnUse">
<stop stop-color="#3ABAF9"/>
<stop offset="1" stop-color="#267EBD"/>
</linearGradient>
<linearGradient id="paint40_linear_0_2819" x1="15.4545" y1="114.715" x2="30.6031" y2="114.716" gradientUnits="userSpaceOnUse">
<stop stop-color="#C8C8C8"/>
<stop offset="1" stop-color="#F0F0F0"/>
</linearGradient>
<linearGradient id="paint41_linear_0_2819" x1="30.5596" y1="113.944" x2="30.6047" y2="113.944" gradientUnits="userSpaceOnUse">
<stop stop-color="#C8C8C8"/>
<stop offset="1" stop-color="#F0F0F0"/>
</linearGradient>
<linearGradient id="paint42_linear_0_2819" x1="15.4549" y1="113.944" x2="15.5" y2="113.944" gradientUnits="userSpaceOnUse">
<stop stop-color="#C8C8C8"/>
<stop offset="1" stop-color="#F0F0F0"/>
</linearGradient>
<linearGradient id="paint43_linear_0_2819" x1="1.15958" y1="143.532" x2="41.7627" y2="143.534" gradientUnits="userSpaceOnUse">
<stop stop-color="#C8C8C8"/>
<stop offset="1" stop-color="#F0F0F0"/>
</linearGradient>
<linearGradient id="paint44_linear_0_2819" x1="2.62117" y1="148.112" x2="40.5156" y2="148.114" gradientUnits="userSpaceOnUse">
<stop stop-color="#82FB7C"/>
<stop offset="1" stop-color="#0BA2B3"/>
</linearGradient>
<linearGradient id="paint45_linear_0_2819" x1="45.1084" y1="158.624" x2="4.74333" y2="160.599" gradientUnits="userSpaceOnUse">
<stop stop-color="#1A6191"/>
<stop offset="1" stop-color="#267EBD"/>
</linearGradient>
<linearGradient id="paint46_linear_0_2819" x1="30.8148" y1="107.523" x2="15.2316" y2="107.554" gradientUnits="userSpaceOnUse">
<stop stop-color="#C67430"/>
<stop offset="1" stop-color="#D8952A"/>
</linearGradient>
<linearGradient id="paint47_linear_0_2819" x1="30.8407" y1="97.6375" x2="15.2115" y2="97.6375" gradientUnits="userSpaceOnUse">
<stop stop-color="#FFD2A1"/>
<stop offset="1" stop-color="#E9AF5D"/>
</linearGradient>
<linearGradient id="paint48_linear_0_2819" x1="23.8048" y1="133.916" x2="19.8501" y2="133.916" gradientUnits="userSpaceOnUse">
<stop stop-color="#1A6191"/>
<stop offset="1" stop-color="#267EBD"/>
</linearGradient>
<linearGradient id="paint49_linear_0_2819" x1="35.0638" y1="162.104" x2="31.1092" y2="162.104" gradientUnits="userSpaceOnUse">
<stop stop-color="#1A6191"/>
<stop offset="1" stop-color="#267EBD"/>
</linearGradient>
<linearGradient id="paint50_linear_0_2819" x1="16.9319" y1="145.511" x2="12.9773" y2="145.511" gradientUnits="userSpaceOnUse">
<stop stop-color="#1A6191"/>
<stop offset="1" stop-color="#267EBD"/>
</linearGradient>
<linearGradient id="paint51_linear_0_2819" x1="23.0339" y1="158.536" x2="19.0793" y2="158.536" gradientUnits="userSpaceOnUse">
<stop stop-color="#1A6191"/>
<stop offset="1" stop-color="#267EBD"/>
</linearGradient>
<linearGradient id="paint52_linear_0_2819" x1="31.1079" y1="148.401" x2="27.1532" y2="148.401" gradientUnits="userSpaceOnUse">
<stop stop-color="#1A6191"/>
<stop offset="1" stop-color="#267EBD"/>
</linearGradient>
<linearGradient id="paint53_linear_0_2819" x1="31.0984" y1="141.476" x2="28.7609" y2="141.476" gradientUnits="userSpaceOnUse">
<stop stop-color="#1A6191"/>
<stop offset="1" stop-color="#267EBD"/>
</linearGradient>
<linearGradient id="paint54_linear_0_2819" x1="12.9781" y1="155.151" x2="10.6409" y2="155.151" gradientUnits="userSpaceOnUse">
<stop stop-color="#1A6191"/>
<stop offset="1" stop-color="#267EBD"/>
</linearGradient>
<linearGradient id="paint55_linear_0_2819" x1="36.5917" y1="154.595" x2="34.2543" y2="154.595" gradientUnits="userSpaceOnUse">
<stop stop-color="#1A6191"/>
<stop offset="1" stop-color="#267EBD"/>
</linearGradient>
<linearGradient id="paint56_linear_0_2819" x1="95.3923" y1="13.4791" x2="48.709" y2="27.5033" gradientUnits="userSpaceOnUse">
<stop stop-color="#82FB7C"/>
<stop offset="1" stop-color="#0BA2B3"/>
</linearGradient>
<linearGradient id="paint57_linear_0_2819" x1="79.1368" y1="58.0103" x2="101.806" y2="31.6907" gradientUnits="userSpaceOnUse">
<stop stop-color="#FF9D00"/>
<stop offset="1" stop-color="#FFE84C"/>
</linearGradient>
<linearGradient id="paint58_linear_0_2819" x1="80.0272" y1="58.77" x2="102.697" y2="32.4506" gradientUnits="userSpaceOnUse">
<stop stop-color="#FF9D00"/>
<stop offset="1" stop-color="#FFE84C"/>
</linearGradient>
<linearGradient id="paint59_linear_0_2819" x1="77.3219" y1="56.4456" x2="99.9913" y2="30.1261" gradientUnits="userSpaceOnUse">
<stop stop-color="#FF9D00"/>
<stop offset="1" stop-color="#FFE84C"/>
</linearGradient>
<linearGradient id="paint60_linear_0_2819" x1="65.8844" y1="46.5906" x2="88.5539" y2="20.2711" gradientUnits="userSpaceOnUse">
<stop stop-color="#FF9D00"/>
<stop offset="1" stop-color="#FFE84C"/>
</linearGradient>
<linearGradient id="paint61_linear_0_2819" x1="70.6427" y1="50.6885" x2="93.312" y2="24.3691" gradientUnits="userSpaceOnUse">
<stop stop-color="#FF9D00"/>
<stop offset="1" stop-color="#FFE84C"/>
</linearGradient>
<linearGradient id="paint62_linear_0_2819" x1="60.1501" y1="41.6563" x2="82.8195" y2="15.3367" gradientUnits="userSpaceOnUse">
<stop stop-color="#FF9D00"/>
<stop offset="1" stop-color="#FFE84C"/>
</linearGradient>
<linearGradient id="paint63_linear_0_2819" x1="74.1385" y1="53.7066" x2="96.8079" y2="27.3871" gradientUnits="userSpaceOnUse">
<stop stop-color="#FF9D00"/>
<stop offset="1" stop-color="#FFE84C"/>
</linearGradient>
<linearGradient id="paint64_linear_0_2819" x1="79.8662" y1="58.6307" x2="102.536" y2="32.3113" gradientUnits="userSpaceOnUse">
<stop stop-color="#FF9D00"/>
<stop offset="1" stop-color="#FFE84C"/>
</linearGradient>
<linearGradient id="paint65_linear_0_2819" x1="69.8877" y1="50.043" x2="92.557" y2="23.7235" gradientUnits="userSpaceOnUse">
<stop stop-color="#FF9D00"/>
<stop offset="1" stop-color="#FFE84C"/>
</linearGradient>
<linearGradient id="paint66_linear_0_2819" x1="71.247" y1="15.6863" x2="87.7152" y2="15.6863" gradientUnits="userSpaceOnUse">
<stop stop-color="#FF9D00"/>
<stop offset="1" stop-color="#FFE84C"/>
</linearGradient>
<linearGradient id="paint67_linear_0_2819" x1="85.4175" y1="163.446" x2="152.39" y2="163.446" gradientUnits="userSpaceOnUse">
<stop stop-color="#303030"/>
<stop offset="1" stop-color="#727272"/>
</linearGradient>
<linearGradient id="paint68_linear_0_2819" x1="117.026" y1="205.78" x2="107.244" y2="127.518" gradientUnits="userSpaceOnUse">
<stop stop-color="#F6F6F6"/>
<stop offset="1" stop-color="#CBCBCB"/>
</linearGradient>
<linearGradient id="paint69_linear_0_2819" x1="100.188" y1="162.355" x2="130.539" y2="162.355" gradientUnits="userSpaceOnUse">
<stop stop-color="#82FB7C"/>
<stop offset="1" stop-color="#0BA2B3"/>
</linearGradient>
<linearGradient id="paint70_linear_0_2819" x1="149.896" y1="206.468" x2="154.788" y2="201.181" gradientUnits="userSpaceOnUse">
<stop stop-color="#F6F6F6"/>
<stop offset="1" stop-color="#CBCBCB"/>
</linearGradient>
<linearGradient id="paint71_linear_0_2819" x1="159.44" y1="211.048" x2="167.009" y2="212.681" gradientUnits="userSpaceOnUse">
<stop stop-color="#F6F6F6"/>
<stop offset="1" stop-color="#CBCBCB"/>
</linearGradient>
<linearGradient id="paint72_linear_0_2819" x1="187.233" y1="219.561" x2="170.447" y2="234.53" gradientUnits="userSpaceOnUse">
<stop stop-color="#303030"/>
<stop offset="1" stop-color="#727272"/>
</linearGradient>
<linearGradient id="paint73_linear_0_2819" x1="189.395" y1="243.92" x2="205.56" y2="248.157" gradientUnits="userSpaceOnUse">
<stop stop-color="#303030"/>
<stop offset="1" stop-color="#727272"/>
</linearGradient>
</defs>
</svg>
